G04 #@! TF.GenerationSoftware,KiCad,Pcbnew,6.0.9*
G04 #@! TF.CreationDate,2022-11-13T16:30:06+01:00*
G04 #@! TF.ProjectId,mikro-spiflash,6d696b72-6f2d-4737-9069-666c6173682e,rev?*
G04 #@! TF.SameCoordinates,Original*
G04 #@! TF.FileFunction,Profile,NP*
%FSLAX46Y46*%
G04 Gerber Fmt 4.6, Leading zero omitted, Abs format (unit mm)*
G04 Created by KiCad (PCBNEW 6.0.9) date 2022-11-13 16:30:06*
%MOMM*%
%LPD*%
G01*
G04 APERTURE LIST*
G04 #@! TA.AperFunction,Profile*
%ADD10C,0.150000*%
G04 #@! TD*
G04 APERTURE END LIST*
D10*
X99314000Y-24130000D02*
X99314000Y-25019000D01*
X88519000Y-25019000D02*
X88519000Y-24130000D01*
X88646000Y-24130000D02*
X88519000Y-24130000D01*
X101219000Y-24638000D02*
G75*
G03*
X101219000Y-24638000I-762000J0D01*
G01*
X99822000Y-10414000D02*
X99822000Y-23622000D01*
X100965000Y-10414000D02*
X99822000Y-10414000D01*
X100965000Y-23622000D02*
X100965000Y-10414000D01*
X99822000Y-23622000D02*
X100965000Y-23622000D01*
X99314000Y-25019000D02*
X88519000Y-25019000D01*
X88646000Y-24130000D02*
X99314000Y-24130000D01*
X88646000Y-40132000D02*
X99187000Y-40132000D01*
X88646000Y-39116000D02*
X88646000Y-40132000D01*
X99187000Y-39116000D02*
X88646000Y-39116000D01*
X99187000Y-40132000D02*
X99187000Y-39116000D01*
X99822000Y-40132000D02*
X101092000Y-40132000D01*
X99822000Y-25781000D02*
X99822000Y-40132000D01*
X101092000Y-25781000D02*
X99822000Y-25781000D01*
X101092000Y-40132000D02*
X101092000Y-25781000D01*
X101600000Y-24130000D02*
X112014000Y-24130000D01*
X101600000Y-25019000D02*
X101600000Y-24130000D01*
X112014000Y-25019000D02*
X101600000Y-25019000D01*
X112014000Y-24130000D02*
X112014000Y-25019000D01*
X111887000Y-39116000D02*
X111887000Y-40132000D01*
X101727000Y-39116000D02*
X111887000Y-39116000D01*
X101727000Y-40132000D02*
X101727000Y-39116000D01*
X111887000Y-40132000D02*
X101727000Y-40132000D01*
X113562000Y-40132000D02*
X112522000Y-40132000D01*
X112522000Y-10033000D02*
X112522000Y-40132000D01*
X88138000Y-10033000D02*
X112522000Y-10033000D01*
X88162000Y-40132000D02*
X88138000Y-10033000D01*
X88162000Y-40132000D02*
X88162000Y-42418000D01*
X113562000Y-40132000D02*
X113562000Y-42418000D01*
X88162000Y-42418000D02*
X88162000Y-68643500D01*
X113562000Y-66040000D02*
X113562000Y-42418000D01*
X111022000Y-68643500D02*
X113562000Y-66040000D01*
X88162000Y-68643500D02*
X111022000Y-68643500D01*
M02*
