G04 #@! TF.GenerationSoftware,KiCad,Pcbnew,6.0.9*
G04 #@! TF.CreationDate,2022-11-13T16:30:05+01:00*
G04 #@! TF.ProjectId,mikro-spiflash,6d696b72-6f2d-4737-9069-666c6173682e,rev?*
G04 #@! TF.SameCoordinates,Original*
G04 #@! TF.FileFunction,Copper,L1,Top*
G04 #@! TF.FilePolarity,Positive*
%FSLAX46Y46*%
G04 Gerber Fmt 4.6, Leading zero omitted, Abs format (unit mm)*
G04 Created by KiCad (PCBNEW 6.0.9) date 2022-11-13 16:30:05*
%MOMM*%
%LPD*%
G01*
G04 APERTURE LIST*
G04 #@! TA.AperFunction,ComponentPad*
%ADD10R,1.676400X1.676400*%
G04 #@! TD*
G04 #@! TA.AperFunction,ComponentPad*
%ADD11C,1.524000*%
G04 #@! TD*
G04 #@! TA.AperFunction,ComponentPad*
%ADD12R,1.524000X1.524000*%
G04 #@! TD*
G04 #@! TA.AperFunction,ComponentPad*
%ADD13R,1.700000X1.700000*%
G04 #@! TD*
G04 #@! TA.AperFunction,ComponentPad*
%ADD14O,1.700000X1.700000*%
G04 #@! TD*
G04 #@! TA.AperFunction,ViaPad*
%ADD15C,0.800000*%
G04 #@! TD*
G04 #@! TA.AperFunction,ViaPad*
%ADD16C,1.000000*%
G04 #@! TD*
G04 #@! TA.AperFunction,Conductor*
%ADD17C,0.250000*%
G04 #@! TD*
G04 APERTURE END LIST*
D10*
X89432000Y-46990000D03*
D11*
X89432000Y-49530000D03*
X89432000Y-52070000D03*
X89432000Y-54610000D03*
X89432000Y-57150000D03*
X89432000Y-59690000D03*
X89432000Y-62230000D03*
X89432000Y-64770000D03*
X112292000Y-64770000D03*
X112292000Y-62230000D03*
X112292000Y-59690000D03*
X112292000Y-57150000D03*
X112292000Y-54610000D03*
X112292000Y-52070000D03*
X112292000Y-49530000D03*
D12*
X112292000Y-46990000D03*
D13*
X106171000Y-65532000D03*
D14*
X106171000Y-62992000D03*
X106171000Y-60452000D03*
X106171000Y-57912000D03*
D13*
X96036000Y-57912000D03*
D14*
X96036000Y-60452000D03*
X96036000Y-62992000D03*
X96036000Y-65532000D03*
X103029000Y-12001500D03*
X105569000Y-12001500D03*
X108109000Y-12001500D03*
D13*
X110649000Y-12001500D03*
D14*
X90234000Y-27048500D03*
X92774000Y-27048500D03*
X95314000Y-27048500D03*
D13*
X97854000Y-27048500D03*
X97854000Y-12001500D03*
D14*
X95314000Y-12001500D03*
X92774000Y-12001500D03*
X90234000Y-12001500D03*
D13*
X110649000Y-27048500D03*
D14*
X108109000Y-27048500D03*
X105569000Y-27048500D03*
X103029000Y-27048500D03*
D13*
X106196000Y-52832000D03*
D14*
X106196000Y-50292000D03*
X106196000Y-47752000D03*
X106196000Y-45212000D03*
D13*
X97854000Y-22161500D03*
D14*
X95314000Y-22161500D03*
X92774000Y-22161500D03*
X90234000Y-22161500D03*
D13*
X110649000Y-37208500D03*
D14*
X108109000Y-37208500D03*
X105569000Y-37208500D03*
X103029000Y-37208500D03*
X103029000Y-22161500D03*
X105569000Y-22161500D03*
X108109000Y-22161500D03*
D13*
X110649000Y-22161500D03*
D14*
X90234000Y-37208500D03*
X92774000Y-37208500D03*
X95314000Y-37208500D03*
D13*
X97854000Y-37208500D03*
D14*
X96061000Y-52842000D03*
X96061000Y-50302000D03*
X96061000Y-47762000D03*
D13*
X96061000Y-45222000D03*
D15*
X108712000Y-53340000D03*
X91440000Y-61722000D03*
X104394000Y-44196000D03*
D16*
X100076000Y-46228000D03*
X102616000Y-58674000D03*
D15*
X100260891Y-55372000D03*
X102108000Y-55372000D03*
X97213500Y-13459500D03*
X110038500Y-13462000D03*
X97213500Y-28636000D03*
X110008500Y-28702000D03*
X90866500Y-19936500D03*
X103637000Y-35306000D03*
X90869000Y-35303500D03*
X103664000Y-20256500D03*
D17*
X102108000Y-55372000D02*
X100260891Y-55372000D01*
X108204000Y-52832000D02*
X106196000Y-52832000D01*
X108712000Y-53340000D02*
X108204000Y-52832000D01*
X89432000Y-59690000D02*
X91440000Y-61698000D01*
X91440000Y-61698000D02*
X91440000Y-61722000D01*
X96036000Y-60452000D02*
X92734000Y-60452000D01*
X92734000Y-60452000D02*
X89432000Y-57150000D01*
X104394000Y-49554000D02*
X104394000Y-44196000D01*
X96036000Y-57912000D02*
X104394000Y-49554000D01*
X96061000Y-47762000D02*
X94886000Y-48937000D01*
X94886000Y-48937000D02*
X94886000Y-51696000D01*
X94886000Y-51696000D02*
X89432000Y-57150000D01*
X97213500Y-13459500D02*
X91692000Y-13459500D01*
X91692000Y-13459500D02*
X90234000Y-12001500D01*
X104489500Y-13462000D02*
X110038500Y-13462000D01*
X103029000Y-12001500D02*
X104489500Y-13462000D01*
X91821500Y-28636000D02*
X90234000Y-27048500D01*
X97213500Y-28636000D02*
X91821500Y-28636000D01*
X103029000Y-27048500D02*
X104682500Y-28702000D01*
X104682500Y-28702000D02*
X110008500Y-28702000D01*
X97854000Y-22161500D02*
X95629000Y-19936500D01*
X95629000Y-19936500D02*
X90866500Y-19936500D01*
X108746500Y-35306000D02*
X103637000Y-35306000D01*
X110649000Y-37208500D02*
X108746500Y-35306000D01*
X97854000Y-37208500D02*
X95949000Y-35303500D01*
X95949000Y-35303500D02*
X90869000Y-35303500D01*
X110649000Y-22161500D02*
X108744000Y-20256500D01*
X108744000Y-20256500D02*
X103664000Y-20256500D01*
G04 #@! TA.AperFunction,Conductor*
G36*
X112258875Y-40570263D02*
G01*
X112266715Y-40573944D01*
X112281691Y-40582263D01*
X112298983Y-40593471D01*
X112298988Y-40593473D01*
X112306515Y-40598352D01*
X112315108Y-40600922D01*
X112315113Y-40600924D01*
X112331120Y-40605711D01*
X112348564Y-40612372D01*
X112363676Y-40619467D01*
X112363678Y-40619468D01*
X112371800Y-40623281D01*
X112380667Y-40624662D01*
X112380668Y-40624662D01*
X112383353Y-40625080D01*
X112401017Y-40627830D01*
X112417732Y-40631613D01*
X112437466Y-40637515D01*
X112437472Y-40637516D01*
X112446066Y-40640086D01*
X112455037Y-40640141D01*
X112455038Y-40640141D01*
X112465097Y-40640202D01*
X112480506Y-40640296D01*
X112481289Y-40640329D01*
X112482386Y-40640500D01*
X112513377Y-40640500D01*
X112514147Y-40640502D01*
X112587785Y-40640952D01*
X112587786Y-40640952D01*
X112591721Y-40640976D01*
X112593065Y-40640592D01*
X112594410Y-40640500D01*
X112927500Y-40640500D01*
X112995621Y-40660502D01*
X113042114Y-40714158D01*
X113053500Y-40766500D01*
X113053500Y-45593500D01*
X113033498Y-45661621D01*
X112979842Y-45708114D01*
X112927500Y-45719500D01*
X111481866Y-45719500D01*
X111419684Y-45726255D01*
X111283295Y-45777385D01*
X111166739Y-45864739D01*
X111079385Y-45981295D01*
X111028255Y-46117684D01*
X111021500Y-46179866D01*
X111021500Y-47800134D01*
X111028255Y-47862316D01*
X111079385Y-47998705D01*
X111166739Y-48115261D01*
X111283295Y-48202615D01*
X111419684Y-48253745D01*
X111481866Y-48260500D01*
X111490364Y-48260500D01*
X111558485Y-48280502D01*
X111604978Y-48334158D01*
X111615082Y-48404432D01*
X111585588Y-48469012D01*
X111562635Y-48489713D01*
X111476730Y-48549864D01*
X111476727Y-48549866D01*
X111472219Y-48553023D01*
X111315023Y-48710219D01*
X111311866Y-48714727D01*
X111311864Y-48714730D01*
X111198085Y-48877224D01*
X111187512Y-48892324D01*
X111185189Y-48897306D01*
X111185186Y-48897311D01*
X111121542Y-49033797D01*
X111093560Y-49093804D01*
X111036022Y-49308537D01*
X111016647Y-49530000D01*
X111036022Y-49751463D01*
X111093560Y-49966196D01*
X111095882Y-49971177D01*
X111095883Y-49971178D01*
X111185186Y-50162689D01*
X111185189Y-50162694D01*
X111187512Y-50167676D01*
X111190668Y-50172183D01*
X111190669Y-50172185D01*
X111283923Y-50305365D01*
X111315023Y-50349781D01*
X111472219Y-50506977D01*
X111476727Y-50510134D01*
X111476730Y-50510136D01*
X111530500Y-50547786D01*
X111654323Y-50634488D01*
X111659305Y-50636811D01*
X111659310Y-50636814D01*
X111764373Y-50685805D01*
X111817658Y-50732722D01*
X111837119Y-50800999D01*
X111816577Y-50868959D01*
X111764373Y-50914195D01*
X111659311Y-50963186D01*
X111659306Y-50963189D01*
X111654324Y-50965512D01*
X111649817Y-50968668D01*
X111649815Y-50968669D01*
X111476730Y-51089864D01*
X111476727Y-51089866D01*
X111472219Y-51093023D01*
X111315023Y-51250219D01*
X111311866Y-51254727D01*
X111311864Y-51254730D01*
X111249936Y-51343173D01*
X111187512Y-51432324D01*
X111185189Y-51437306D01*
X111185186Y-51437311D01*
X111141319Y-51531385D01*
X111093560Y-51633804D01*
X111092138Y-51639112D01*
X111092137Y-51639114D01*
X111080078Y-51684120D01*
X111036022Y-51848537D01*
X111016647Y-52070000D01*
X111036022Y-52291463D01*
X111093560Y-52506196D01*
X111095882Y-52511177D01*
X111095883Y-52511178D01*
X111185186Y-52702689D01*
X111185189Y-52702694D01*
X111187512Y-52707676D01*
X111190668Y-52712183D01*
X111190669Y-52712185D01*
X111254298Y-52803056D01*
X111315023Y-52889781D01*
X111472219Y-53046977D01*
X111476727Y-53050134D01*
X111476730Y-53050136D01*
X111530500Y-53087786D01*
X111654323Y-53174488D01*
X111659305Y-53176811D01*
X111659310Y-53176814D01*
X111764373Y-53225805D01*
X111817658Y-53272722D01*
X111837119Y-53340999D01*
X111816577Y-53408959D01*
X111764373Y-53454195D01*
X111659311Y-53503186D01*
X111659306Y-53503189D01*
X111654324Y-53505512D01*
X111649817Y-53508668D01*
X111649815Y-53508669D01*
X111476730Y-53629864D01*
X111476727Y-53629866D01*
X111472219Y-53633023D01*
X111315023Y-53790219D01*
X111311866Y-53794727D01*
X111311864Y-53794730D01*
X111199701Y-53954916D01*
X111187512Y-53972324D01*
X111185189Y-53977306D01*
X111185186Y-53977311D01*
X111113465Y-54131118D01*
X111093560Y-54173804D01*
X111092138Y-54179112D01*
X111092137Y-54179114D01*
X111090896Y-54183745D01*
X111036022Y-54388537D01*
X111016647Y-54610000D01*
X111036022Y-54831463D01*
X111093560Y-55046196D01*
X111095882Y-55051177D01*
X111095883Y-55051178D01*
X111185186Y-55242689D01*
X111185189Y-55242694D01*
X111187512Y-55247676D01*
X111190668Y-55252183D01*
X111190669Y-55252185D01*
X111269968Y-55365435D01*
X111315023Y-55429781D01*
X111472219Y-55586977D01*
X111476727Y-55590134D01*
X111476730Y-55590136D01*
X111503465Y-55608856D01*
X111654323Y-55714488D01*
X111659305Y-55716811D01*
X111659310Y-55716814D01*
X111764373Y-55765805D01*
X111817658Y-55812722D01*
X111837119Y-55880999D01*
X111816577Y-55948959D01*
X111764373Y-55994195D01*
X111659311Y-56043186D01*
X111659306Y-56043189D01*
X111654324Y-56045512D01*
X111649817Y-56048668D01*
X111649815Y-56048669D01*
X111476730Y-56169864D01*
X111476727Y-56169866D01*
X111472219Y-56173023D01*
X111315023Y-56330219D01*
X111187512Y-56512324D01*
X111185189Y-56517306D01*
X111185186Y-56517311D01*
X111120814Y-56655357D01*
X111093560Y-56713804D01*
X111036022Y-56928537D01*
X111016647Y-57150000D01*
X111036022Y-57371463D01*
X111093560Y-57586196D01*
X111095882Y-57591177D01*
X111095883Y-57591178D01*
X111185186Y-57782689D01*
X111185189Y-57782694D01*
X111187512Y-57787676D01*
X111190668Y-57792183D01*
X111190669Y-57792185D01*
X111276921Y-57915365D01*
X111315023Y-57969781D01*
X111472219Y-58126977D01*
X111476727Y-58130134D01*
X111476730Y-58130136D01*
X111530500Y-58167786D01*
X111654323Y-58254488D01*
X111659305Y-58256811D01*
X111659310Y-58256814D01*
X111764373Y-58305805D01*
X111817658Y-58352722D01*
X111837119Y-58420999D01*
X111816577Y-58488959D01*
X111764373Y-58534195D01*
X111659311Y-58583186D01*
X111659306Y-58583189D01*
X111654324Y-58585512D01*
X111649817Y-58588668D01*
X111649815Y-58588669D01*
X111476730Y-58709864D01*
X111476727Y-58709866D01*
X111472219Y-58713023D01*
X111315023Y-58870219D01*
X111311866Y-58874727D01*
X111311864Y-58874730D01*
X111190669Y-59047815D01*
X111187512Y-59052324D01*
X111185189Y-59057306D01*
X111185186Y-59057311D01*
X111101826Y-59236078D01*
X111093560Y-59253804D01*
X111092138Y-59259112D01*
X111092137Y-59259114D01*
X111080750Y-59301612D01*
X111036022Y-59468537D01*
X111016647Y-59690000D01*
X111036022Y-59911463D01*
X111093560Y-60126196D01*
X111095882Y-60131177D01*
X111095883Y-60131178D01*
X111185186Y-60322689D01*
X111185189Y-60322694D01*
X111187512Y-60327676D01*
X111190668Y-60332183D01*
X111190669Y-60332185D01*
X111276921Y-60455365D01*
X111315023Y-60509781D01*
X111472219Y-60666977D01*
X111476727Y-60670134D01*
X111476730Y-60670136D01*
X111530500Y-60707786D01*
X111654323Y-60794488D01*
X111659305Y-60796811D01*
X111659310Y-60796814D01*
X111764373Y-60845805D01*
X111817658Y-60892722D01*
X111837119Y-60960999D01*
X111816577Y-61028959D01*
X111764373Y-61074195D01*
X111659311Y-61123186D01*
X111659306Y-61123189D01*
X111654324Y-61125512D01*
X111649817Y-61128668D01*
X111649815Y-61128669D01*
X111476730Y-61249864D01*
X111476727Y-61249866D01*
X111472219Y-61253023D01*
X111315023Y-61410219D01*
X111311866Y-61414727D01*
X111311864Y-61414730D01*
X111190669Y-61587815D01*
X111187512Y-61592324D01*
X111185189Y-61597306D01*
X111185186Y-61597311D01*
X111120814Y-61735357D01*
X111093560Y-61793804D01*
X111036022Y-62008537D01*
X111016647Y-62230000D01*
X111036022Y-62451463D01*
X111073356Y-62590794D01*
X111083628Y-62629128D01*
X111093560Y-62666196D01*
X111095882Y-62671177D01*
X111095883Y-62671178D01*
X111185186Y-62862689D01*
X111185189Y-62862694D01*
X111187512Y-62867676D01*
X111190668Y-62872183D01*
X111190669Y-62872185D01*
X111276921Y-62995365D01*
X111315023Y-63049781D01*
X111472219Y-63206977D01*
X111476727Y-63210134D01*
X111476730Y-63210136D01*
X111530500Y-63247786D01*
X111654323Y-63334488D01*
X111659305Y-63336811D01*
X111659310Y-63336814D01*
X111764965Y-63386081D01*
X111818250Y-63432998D01*
X111837711Y-63501275D01*
X111817169Y-63569235D01*
X111764965Y-63614471D01*
X111659559Y-63663623D01*
X111650068Y-63669103D01*
X111606235Y-63699794D01*
X111597860Y-63710271D01*
X111604928Y-63723718D01*
X112562115Y-64680905D01*
X112596141Y-64743217D01*
X112591076Y-64814032D01*
X112562115Y-64859095D01*
X111604207Y-65817003D01*
X111597777Y-65828777D01*
X111607074Y-65840793D01*
X111650069Y-65870898D01*
X111659555Y-65876376D01*
X111850993Y-65965645D01*
X111861285Y-65969391D01*
X112065309Y-66024059D01*
X112076104Y-66025962D01*
X112286525Y-66044372D01*
X112297475Y-66044372D01*
X112507896Y-66025962D01*
X112518691Y-66024059D01*
X112547215Y-66016416D01*
X112618192Y-66018106D01*
X112676987Y-66057900D01*
X112704935Y-66123165D01*
X112693161Y-66193178D01*
X112670015Y-66226112D01*
X112028422Y-66883745D01*
X110879548Y-68061342D01*
X110844770Y-68096989D01*
X110782882Y-68131780D01*
X110754581Y-68135000D01*
X88796500Y-68135000D01*
X88728379Y-68114998D01*
X88681886Y-68061342D01*
X88670500Y-68009000D01*
X88670500Y-66013977D01*
X88690502Y-65945856D01*
X88744158Y-65899363D01*
X88814432Y-65889259D01*
X88849750Y-65899782D01*
X88990993Y-65965645D01*
X89001285Y-65969391D01*
X89205309Y-66024059D01*
X89216104Y-66025962D01*
X89426525Y-66044372D01*
X89437475Y-66044372D01*
X89647896Y-66025962D01*
X89658691Y-66024059D01*
X89862715Y-65969391D01*
X89873007Y-65965645D01*
X90064445Y-65876376D01*
X90073931Y-65870898D01*
X90117764Y-65840207D01*
X90126139Y-65829729D01*
X90119071Y-65816281D01*
X90102756Y-65799966D01*
X94704257Y-65799966D01*
X94734565Y-65934446D01*
X94737645Y-65944275D01*
X94817770Y-66141603D01*
X94822413Y-66150794D01*
X94933694Y-66332388D01*
X94939777Y-66340699D01*
X95079213Y-66501667D01*
X95086580Y-66508883D01*
X95250434Y-66644916D01*
X95258881Y-66650831D01*
X95442756Y-66758279D01*
X95452042Y-66762729D01*
X95651001Y-66838703D01*
X95660899Y-66841579D01*
X95764250Y-66862606D01*
X95778299Y-66861410D01*
X95782000Y-66851065D01*
X95782000Y-66850517D01*
X96290000Y-66850517D01*
X96294064Y-66864359D01*
X96307478Y-66866393D01*
X96314184Y-66865534D01*
X96324262Y-66863392D01*
X96528255Y-66802191D01*
X96537842Y-66798433D01*
X96729095Y-66704739D01*
X96737945Y-66699464D01*
X96911328Y-66575792D01*
X96919200Y-66569139D01*
X97070052Y-66418812D01*
X97076730Y-66410965D01*
X97201003Y-66238020D01*
X97206313Y-66229183D01*
X97300670Y-66038267D01*
X97304469Y-66028672D01*
X97366377Y-65824910D01*
X97368555Y-65814837D01*
X97369986Y-65803962D01*
X97367775Y-65789778D01*
X97354617Y-65786000D01*
X96308115Y-65786000D01*
X96292876Y-65790475D01*
X96291671Y-65791865D01*
X96290000Y-65799548D01*
X96290000Y-66850517D01*
X95782000Y-66850517D01*
X95782000Y-65804115D01*
X95777525Y-65788876D01*
X95776135Y-65787671D01*
X95768452Y-65786000D01*
X94719225Y-65786000D01*
X94705694Y-65789973D01*
X94704257Y-65799966D01*
X90102756Y-65799966D01*
X89161885Y-64859095D01*
X89127859Y-64796783D01*
X89129694Y-64771132D01*
X89796408Y-64771132D01*
X89796539Y-64772965D01*
X89800790Y-64779580D01*
X90479003Y-65457793D01*
X90490777Y-65464223D01*
X90502793Y-65454926D01*
X90532897Y-65411932D01*
X90538377Y-65402441D01*
X90627645Y-65211007D01*
X90631391Y-65200715D01*
X90686059Y-64996691D01*
X90687962Y-64985896D01*
X90706372Y-64775475D01*
X90706372Y-64764525D01*
X90687962Y-64554104D01*
X90686059Y-64543309D01*
X90631391Y-64339285D01*
X90627645Y-64328993D01*
X90538377Y-64137559D01*
X90532897Y-64128068D01*
X90502206Y-64084235D01*
X90491729Y-64075860D01*
X90478282Y-64082928D01*
X89804022Y-64757188D01*
X89796408Y-64771132D01*
X89129694Y-64771132D01*
X89132924Y-64725968D01*
X89161885Y-64680905D01*
X90119793Y-63722997D01*
X90126223Y-63711223D01*
X90116926Y-63699207D01*
X90073931Y-63669102D01*
X90064445Y-63663624D01*
X89959035Y-63614471D01*
X89905750Y-63567554D01*
X89886289Y-63499277D01*
X89906831Y-63431317D01*
X89959035Y-63386081D01*
X90064690Y-63336814D01*
X90064695Y-63336811D01*
X90069677Y-63334488D01*
X90193500Y-63247786D01*
X90247270Y-63210136D01*
X90247273Y-63210134D01*
X90251781Y-63206977D01*
X90408977Y-63049781D01*
X90447080Y-62995365D01*
X90533331Y-62872185D01*
X90533332Y-62872183D01*
X90536488Y-62867676D01*
X90538811Y-62862694D01*
X90538814Y-62862689D01*
X90628117Y-62671178D01*
X90628118Y-62671177D01*
X90630440Y-62666196D01*
X90640373Y-62629128D01*
X90674815Y-62500587D01*
X90711767Y-62439964D01*
X90775628Y-62408943D01*
X90846122Y-62417371D01*
X90870583Y-62431262D01*
X90977906Y-62509237D01*
X90983248Y-62513118D01*
X90989276Y-62515802D01*
X90989278Y-62515803D01*
X91083426Y-62557720D01*
X91157712Y-62590794D01*
X91251113Y-62610647D01*
X91338056Y-62629128D01*
X91338061Y-62629128D01*
X91344513Y-62630500D01*
X91535487Y-62630500D01*
X91541939Y-62629128D01*
X91541944Y-62629128D01*
X91628887Y-62610647D01*
X91722288Y-62590794D01*
X91796574Y-62557720D01*
X91890722Y-62515803D01*
X91890724Y-62515802D01*
X91896752Y-62513118D01*
X91914000Y-62500587D01*
X91981612Y-62451463D01*
X92051253Y-62400866D01*
X92125254Y-62318680D01*
X92174621Y-62263852D01*
X92174622Y-62263851D01*
X92179040Y-62258944D01*
X92251097Y-62134138D01*
X92271223Y-62099279D01*
X92271224Y-62099278D01*
X92274527Y-62093556D01*
X92333542Y-61911928D01*
X92339620Y-61854104D01*
X92352814Y-61728565D01*
X92353504Y-61722000D01*
X92333542Y-61532072D01*
X92274527Y-61350444D01*
X92179040Y-61185056D01*
X92151147Y-61154077D01*
X92055675Y-61048045D01*
X92055674Y-61048044D01*
X92051253Y-61043134D01*
X91928311Y-60953811D01*
X91902094Y-60934763D01*
X91902093Y-60934762D01*
X91896752Y-60930882D01*
X91890724Y-60928198D01*
X91890722Y-60928197D01*
X91728319Y-60855891D01*
X91728318Y-60855891D01*
X91722288Y-60853206D01*
X91628887Y-60833353D01*
X91541944Y-60814872D01*
X91541939Y-60814872D01*
X91535487Y-60813500D01*
X91503595Y-60813500D01*
X91435474Y-60793498D01*
X91414499Y-60776595D01*
X90710125Y-60072220D01*
X90676100Y-60009908D01*
X90677515Y-59950512D01*
X90686554Y-59916780D01*
X90686555Y-59916772D01*
X90687978Y-59911463D01*
X90707353Y-59690000D01*
X90702171Y-59630767D01*
X90716161Y-59561162D01*
X90765560Y-59510170D01*
X90834686Y-59493980D01*
X90901591Y-59517733D01*
X90916787Y-59530691D01*
X92230343Y-60844247D01*
X92237887Y-60852537D01*
X92242000Y-60859018D01*
X92247777Y-60864443D01*
X92291667Y-60905658D01*
X92294509Y-60908413D01*
X92314230Y-60928134D01*
X92317425Y-60930612D01*
X92326447Y-60938318D01*
X92358679Y-60968586D01*
X92365628Y-60972406D01*
X92376432Y-60978346D01*
X92392956Y-60989199D01*
X92408959Y-61001613D01*
X92449543Y-61019176D01*
X92460173Y-61024383D01*
X92498940Y-61045695D01*
X92506617Y-61047666D01*
X92506622Y-61047668D01*
X92518558Y-61050732D01*
X92537266Y-61057137D01*
X92555855Y-61065181D01*
X92563683Y-61066421D01*
X92563690Y-61066423D01*
X92599524Y-61072099D01*
X92611144Y-61074505D01*
X92646289Y-61083528D01*
X92653970Y-61085500D01*
X92674224Y-61085500D01*
X92693934Y-61087051D01*
X92713943Y-61090220D01*
X92721835Y-61089474D01*
X92757961Y-61086059D01*
X92769819Y-61085500D01*
X94760274Y-61085500D01*
X94828395Y-61105502D01*
X94867707Y-61145665D01*
X94935987Y-61257088D01*
X95082250Y-61425938D01*
X95254126Y-61568632D01*
X95324595Y-61609811D01*
X95327445Y-61611476D01*
X95376169Y-61663114D01*
X95389240Y-61732897D01*
X95362509Y-61798669D01*
X95322055Y-61832027D01*
X95309607Y-61838507D01*
X95305474Y-61841610D01*
X95305471Y-61841612D01*
X95135100Y-61969530D01*
X95130965Y-61972635D01*
X94976629Y-62134138D01*
X94850743Y-62318680D01*
X94804932Y-62417371D01*
X94762290Y-62509237D01*
X94756688Y-62521305D01*
X94696989Y-62736570D01*
X94673251Y-62958695D01*
X94673548Y-62963848D01*
X94673548Y-62963851D01*
X94679011Y-63058590D01*
X94686110Y-63181715D01*
X94687247Y-63186761D01*
X94687248Y-63186767D01*
X94691803Y-63206977D01*
X94735222Y-63399639D01*
X94819266Y-63606616D01*
X94935987Y-63797088D01*
X95082250Y-63965938D01*
X95254126Y-64108632D01*
X95287387Y-64128068D01*
X95327955Y-64151774D01*
X95376679Y-64203412D01*
X95389750Y-64273195D01*
X95363019Y-64338967D01*
X95322562Y-64372327D01*
X95314457Y-64376546D01*
X95305738Y-64382036D01*
X95135433Y-64509905D01*
X95127726Y-64516748D01*
X94980590Y-64670717D01*
X94974104Y-64678727D01*
X94854098Y-64854649D01*
X94849000Y-64863623D01*
X94759338Y-65056783D01*
X94755775Y-65066470D01*
X94700389Y-65266183D01*
X94701912Y-65274607D01*
X94714292Y-65278000D01*
X97354344Y-65278000D01*
X97367875Y-65274027D01*
X97369180Y-65264947D01*
X97327214Y-65097875D01*
X97323894Y-65088124D01*
X97238972Y-64892814D01*
X97234105Y-64883739D01*
X97118426Y-64704926D01*
X97112136Y-64696757D01*
X96968806Y-64539240D01*
X96961273Y-64532215D01*
X96794139Y-64400222D01*
X96785556Y-64394520D01*
X96748602Y-64374120D01*
X96698631Y-64323687D01*
X96683859Y-64254245D01*
X96708975Y-64187839D01*
X96736327Y-64161232D01*
X96782821Y-64128068D01*
X96915860Y-64033173D01*
X97074096Y-63875489D01*
X97133594Y-63792689D01*
X97201435Y-63698277D01*
X97204453Y-63694077D01*
X97216797Y-63669102D01*
X97301136Y-63498453D01*
X97301137Y-63498451D01*
X97303430Y-63493811D01*
X97336161Y-63386081D01*
X97366865Y-63285023D01*
X97366865Y-63285021D01*
X97368370Y-63280069D01*
X97397529Y-63058590D01*
X97397744Y-63049781D01*
X97399074Y-62995365D01*
X97399074Y-62995361D01*
X97399156Y-62992000D01*
X97396418Y-62958695D01*
X104808251Y-62958695D01*
X104808548Y-62963848D01*
X104808548Y-62963851D01*
X104814011Y-63058590D01*
X104821110Y-63181715D01*
X104822247Y-63186761D01*
X104822248Y-63186767D01*
X104826803Y-63206977D01*
X104870222Y-63399639D01*
X104954266Y-63606616D01*
X105070987Y-63797088D01*
X105217250Y-63965938D01*
X105221230Y-63969242D01*
X105225981Y-63973187D01*
X105265616Y-64032090D01*
X105267113Y-64103071D01*
X105229997Y-64163593D01*
X105189724Y-64188112D01*
X105074295Y-64231385D01*
X104957739Y-64318739D01*
X104870385Y-64435295D01*
X104819255Y-64571684D01*
X104812500Y-64633866D01*
X104812500Y-66430134D01*
X104819255Y-66492316D01*
X104870385Y-66628705D01*
X104957739Y-66745261D01*
X105074295Y-66832615D01*
X105210684Y-66883745D01*
X105272866Y-66890500D01*
X107069134Y-66890500D01*
X107131316Y-66883745D01*
X107267705Y-66832615D01*
X107384261Y-66745261D01*
X107471615Y-66628705D01*
X107522745Y-66492316D01*
X107529500Y-66430134D01*
X107529500Y-64775475D01*
X111017628Y-64775475D01*
X111036038Y-64985896D01*
X111037941Y-64996691D01*
X111092609Y-65200715D01*
X111096355Y-65211007D01*
X111185623Y-65402441D01*
X111191103Y-65411932D01*
X111221794Y-65455765D01*
X111232271Y-65464140D01*
X111245718Y-65457072D01*
X111919978Y-64782812D01*
X111927592Y-64768868D01*
X111927461Y-64767035D01*
X111923210Y-64760420D01*
X111244997Y-64082207D01*
X111233223Y-64075777D01*
X111221207Y-64085074D01*
X111191103Y-64128068D01*
X111185623Y-64137559D01*
X111096355Y-64328993D01*
X111092609Y-64339285D01*
X111037941Y-64543309D01*
X111036038Y-64554104D01*
X111017628Y-64764525D01*
X111017628Y-64775475D01*
X107529500Y-64775475D01*
X107529500Y-64633866D01*
X107522745Y-64571684D01*
X107471615Y-64435295D01*
X107384261Y-64318739D01*
X107267705Y-64231385D01*
X107240905Y-64221338D01*
X107149203Y-64186960D01*
X107092439Y-64144318D01*
X107067739Y-64077756D01*
X107082947Y-64008408D01*
X107104493Y-63979727D01*
X107205435Y-63879137D01*
X107209096Y-63875489D01*
X107268594Y-63792689D01*
X107336435Y-63698277D01*
X107339453Y-63694077D01*
X107351797Y-63669102D01*
X107436136Y-63498453D01*
X107436137Y-63498451D01*
X107438430Y-63493811D01*
X107471161Y-63386081D01*
X107501865Y-63285023D01*
X107501865Y-63285021D01*
X107503370Y-63280069D01*
X107532529Y-63058590D01*
X107532744Y-63049781D01*
X107534074Y-62995365D01*
X107534074Y-62995361D01*
X107534156Y-62992000D01*
X107515852Y-62769361D01*
X107461431Y-62552702D01*
X107372354Y-62347840D01*
X107314845Y-62258944D01*
X107253822Y-62164617D01*
X107253820Y-62164614D01*
X107251014Y-62160277D01*
X107100670Y-61995051D01*
X107096619Y-61991852D01*
X107096615Y-61991848D01*
X106929414Y-61859800D01*
X106929410Y-61859798D01*
X106925359Y-61856598D01*
X106884053Y-61833796D01*
X106834084Y-61783364D01*
X106819312Y-61713921D01*
X106844428Y-61647516D01*
X106871780Y-61620909D01*
X106918176Y-61587815D01*
X107050860Y-61493173D01*
X107209096Y-61335489D01*
X107268354Y-61253023D01*
X107336435Y-61158277D01*
X107339453Y-61154077D01*
X107343611Y-61145665D01*
X107436136Y-60958453D01*
X107436137Y-60958451D01*
X107438430Y-60953811D01*
X107481060Y-60813500D01*
X107501865Y-60745023D01*
X107501865Y-60745021D01*
X107503370Y-60740069D01*
X107532529Y-60518590D01*
X107532744Y-60509781D01*
X107534074Y-60455365D01*
X107534074Y-60455361D01*
X107534156Y-60452000D01*
X107515852Y-60229361D01*
X107461431Y-60012702D01*
X107372354Y-59807840D01*
X107292578Y-59684525D01*
X107253822Y-59624617D01*
X107253820Y-59624614D01*
X107251014Y-59620277D01*
X107100670Y-59455051D01*
X107096619Y-59451852D01*
X107096615Y-59451848D01*
X106929414Y-59319800D01*
X106929410Y-59319798D01*
X106925359Y-59316598D01*
X106884053Y-59293796D01*
X106834084Y-59243364D01*
X106819312Y-59173921D01*
X106844428Y-59107516D01*
X106871780Y-59080909D01*
X106918176Y-59047815D01*
X107050860Y-58953173D01*
X107209096Y-58795489D01*
X107268354Y-58713023D01*
X107336435Y-58618277D01*
X107339453Y-58614077D01*
X107352011Y-58588669D01*
X107436136Y-58418453D01*
X107436137Y-58418451D01*
X107438430Y-58413811D01*
X107471245Y-58305805D01*
X107501865Y-58205023D01*
X107501865Y-58205021D01*
X107503370Y-58200069D01*
X107532529Y-57978590D01*
X107532744Y-57969781D01*
X107534074Y-57915365D01*
X107534074Y-57915361D01*
X107534156Y-57912000D01*
X107515852Y-57689361D01*
X107461431Y-57472702D01*
X107372354Y-57267840D01*
X107251014Y-57080277D01*
X107100670Y-56915051D01*
X107096619Y-56911852D01*
X107096615Y-56911848D01*
X106929414Y-56779800D01*
X106929410Y-56779798D01*
X106925359Y-56776598D01*
X106729789Y-56668638D01*
X106724920Y-56666914D01*
X106724916Y-56666912D01*
X106524087Y-56595795D01*
X106524083Y-56595794D01*
X106519212Y-56594069D01*
X106514119Y-56593162D01*
X106514116Y-56593161D01*
X106304373Y-56555800D01*
X106304367Y-56555799D01*
X106299284Y-56554894D01*
X106225452Y-56553992D01*
X106081081Y-56552228D01*
X106081079Y-56552228D01*
X106075911Y-56552165D01*
X105855091Y-56585955D01*
X105642756Y-56655357D01*
X105612443Y-56671137D01*
X105530481Y-56713804D01*
X105444607Y-56758507D01*
X105440474Y-56761610D01*
X105440471Y-56761612D01*
X105270100Y-56889530D01*
X105265965Y-56892635D01*
X105111629Y-57054138D01*
X104985743Y-57238680D01*
X104970003Y-57272590D01*
X104905981Y-57410514D01*
X104891688Y-57441305D01*
X104831989Y-57656570D01*
X104808251Y-57878695D01*
X104808548Y-57883848D01*
X104808548Y-57883851D01*
X104814011Y-57978590D01*
X104821110Y-58101715D01*
X104822247Y-58106761D01*
X104822248Y-58106767D01*
X104826803Y-58126977D01*
X104870222Y-58319639D01*
X104954266Y-58526616D01*
X105070987Y-58717088D01*
X105217250Y-58885938D01*
X105389126Y-59028632D01*
X105459595Y-59069811D01*
X105462445Y-59071476D01*
X105511169Y-59123114D01*
X105524240Y-59192897D01*
X105497509Y-59258669D01*
X105457055Y-59292027D01*
X105444607Y-59298507D01*
X105440474Y-59301610D01*
X105440471Y-59301612D01*
X105316567Y-59394642D01*
X105265965Y-59432635D01*
X105111629Y-59594138D01*
X104985743Y-59778680D01*
X104971898Y-59808507D01*
X104905982Y-59950512D01*
X104891688Y-59981305D01*
X104831989Y-60196570D01*
X104808251Y-60418695D01*
X104808548Y-60423848D01*
X104808548Y-60423851D01*
X104814011Y-60518590D01*
X104821110Y-60641715D01*
X104822247Y-60646761D01*
X104822248Y-60646767D01*
X104826803Y-60666977D01*
X104870222Y-60859639D01*
X104931673Y-61010976D01*
X104935000Y-61019168D01*
X104954266Y-61066616D01*
X104968731Y-61090220D01*
X105068291Y-61252688D01*
X105070987Y-61257088D01*
X105217250Y-61425938D01*
X105389126Y-61568632D01*
X105459595Y-61609811D01*
X105462445Y-61611476D01*
X105511169Y-61663114D01*
X105524240Y-61732897D01*
X105497509Y-61798669D01*
X105457055Y-61832027D01*
X105444607Y-61838507D01*
X105440474Y-61841610D01*
X105440471Y-61841612D01*
X105270100Y-61969530D01*
X105265965Y-61972635D01*
X105111629Y-62134138D01*
X104985743Y-62318680D01*
X104939932Y-62417371D01*
X104897290Y-62509237D01*
X104891688Y-62521305D01*
X104831989Y-62736570D01*
X104808251Y-62958695D01*
X97396418Y-62958695D01*
X97380852Y-62769361D01*
X97326431Y-62552702D01*
X97237354Y-62347840D01*
X97179845Y-62258944D01*
X97118822Y-62164617D01*
X97118820Y-62164614D01*
X97116014Y-62160277D01*
X96965670Y-61995051D01*
X96961619Y-61991852D01*
X96961615Y-61991848D01*
X96794414Y-61859800D01*
X96794410Y-61859798D01*
X96790359Y-61856598D01*
X96749053Y-61833796D01*
X96699084Y-61783364D01*
X96684312Y-61713921D01*
X96709428Y-61647516D01*
X96736780Y-61620909D01*
X96783176Y-61587815D01*
X96915860Y-61493173D01*
X97074096Y-61335489D01*
X97133354Y-61253023D01*
X97201435Y-61158277D01*
X97204453Y-61154077D01*
X97208611Y-61145665D01*
X97301136Y-60958453D01*
X97301137Y-60958451D01*
X97303430Y-60953811D01*
X97346060Y-60813500D01*
X97366865Y-60745023D01*
X97366865Y-60745021D01*
X97368370Y-60740069D01*
X97397529Y-60518590D01*
X97397744Y-60509781D01*
X97399074Y-60455365D01*
X97399074Y-60455361D01*
X97399156Y-60452000D01*
X97380852Y-60229361D01*
X97326431Y-60012702D01*
X97237354Y-59807840D01*
X97157578Y-59684525D01*
X97118822Y-59624617D01*
X97118820Y-59624614D01*
X97116014Y-59620277D01*
X97112532Y-59616450D01*
X96968798Y-59458488D01*
X96937746Y-59394642D01*
X96946141Y-59324143D01*
X96991317Y-59269375D01*
X97017761Y-59255706D01*
X97124297Y-59215767D01*
X97132705Y-59212615D01*
X97249261Y-59125261D01*
X97336615Y-59008705D01*
X97387745Y-58872316D01*
X97394500Y-58810134D01*
X97394500Y-57501594D01*
X97414502Y-57433473D01*
X97431405Y-57412499D01*
X99201022Y-55642882D01*
X99263334Y-55608856D01*
X99334149Y-55613921D01*
X99390985Y-55656468D01*
X99409950Y-55693038D01*
X99426364Y-55743556D01*
X99521851Y-55908944D01*
X99526269Y-55913851D01*
X99526270Y-55913852D01*
X99598611Y-55994195D01*
X99649638Y-56050866D01*
X99804139Y-56163118D01*
X99810167Y-56165802D01*
X99810169Y-56165803D01*
X99972572Y-56238109D01*
X99978603Y-56240794D01*
X100072004Y-56260647D01*
X100158947Y-56279128D01*
X100158952Y-56279128D01*
X100165404Y-56280500D01*
X100356378Y-56280500D01*
X100362830Y-56279128D01*
X100362835Y-56279128D01*
X100449778Y-56260647D01*
X100543179Y-56240794D01*
X100549210Y-56238109D01*
X100711613Y-56165803D01*
X100711615Y-56165802D01*
X100717643Y-56163118D01*
X100872144Y-56050866D01*
X100876559Y-56045963D01*
X100881471Y-56041540D01*
X100882596Y-56042789D01*
X100935905Y-56009949D01*
X100969091Y-56005500D01*
X101399800Y-56005500D01*
X101467921Y-56025502D01*
X101487147Y-56041843D01*
X101487420Y-56041540D01*
X101492332Y-56045963D01*
X101496747Y-56050866D01*
X101651248Y-56163118D01*
X101657276Y-56165802D01*
X101657278Y-56165803D01*
X101819681Y-56238109D01*
X101825712Y-56240794D01*
X101919113Y-56260647D01*
X102006056Y-56279128D01*
X102006061Y-56279128D01*
X102012513Y-56280500D01*
X102203487Y-56280500D01*
X102209939Y-56279128D01*
X102209944Y-56279128D01*
X102296887Y-56260647D01*
X102390288Y-56240794D01*
X102396319Y-56238109D01*
X102558722Y-56165803D01*
X102558724Y-56165802D01*
X102564752Y-56163118D01*
X102719253Y-56050866D01*
X102770280Y-55994195D01*
X102842621Y-55913852D01*
X102842622Y-55913851D01*
X102847040Y-55908944D01*
X102942527Y-55743556D01*
X103001542Y-55561928D01*
X103015022Y-55433678D01*
X103020814Y-55378565D01*
X103021504Y-55372000D01*
X103001542Y-55182072D01*
X102942527Y-55000444D01*
X102847040Y-54835056D01*
X102818478Y-54803334D01*
X102723675Y-54698045D01*
X102723674Y-54698044D01*
X102719253Y-54693134D01*
X102564752Y-54580882D01*
X102558724Y-54578198D01*
X102558722Y-54578197D01*
X102396319Y-54505891D01*
X102396318Y-54505891D01*
X102390288Y-54503206D01*
X102296887Y-54483353D01*
X102209944Y-54464872D01*
X102209939Y-54464872D01*
X102203487Y-54463500D01*
X102012513Y-54463500D01*
X102006061Y-54464872D01*
X102006056Y-54464872D01*
X101919113Y-54483353D01*
X101825712Y-54503206D01*
X101819682Y-54505891D01*
X101819681Y-54505891D01*
X101657278Y-54578197D01*
X101657276Y-54578198D01*
X101651248Y-54580882D01*
X101645907Y-54584762D01*
X101645906Y-54584763D01*
X101603635Y-54615475D01*
X101496747Y-54693134D01*
X101492332Y-54698037D01*
X101487420Y-54702460D01*
X101486295Y-54701211D01*
X101432986Y-54734051D01*
X101399800Y-54738500D01*
X100969091Y-54738500D01*
X100900970Y-54718498D01*
X100881744Y-54702157D01*
X100881471Y-54702460D01*
X100876559Y-54698037D01*
X100872144Y-54693134D01*
X100765256Y-54615475D01*
X100722985Y-54584763D01*
X100722984Y-54584762D01*
X100717643Y-54580882D01*
X100711617Y-54578199D01*
X100711610Y-54578195D01*
X100570558Y-54515396D01*
X100516462Y-54469416D01*
X100495812Y-54401489D01*
X100515164Y-54333181D01*
X100532711Y-54311194D01*
X104621019Y-50222886D01*
X104683331Y-50188860D01*
X104754146Y-50193925D01*
X104810982Y-50236472D01*
X104835905Y-50304728D01*
X104838818Y-50355240D01*
X104846110Y-50481715D01*
X104847247Y-50486761D01*
X104847248Y-50486767D01*
X104851803Y-50506977D01*
X104895222Y-50699639D01*
X104979266Y-50906616D01*
X105095987Y-51097088D01*
X105242250Y-51265938D01*
X105246230Y-51269242D01*
X105250981Y-51273187D01*
X105290616Y-51332090D01*
X105292113Y-51403071D01*
X105254997Y-51463593D01*
X105214725Y-51488112D01*
X105118751Y-51524091D01*
X105099295Y-51531385D01*
X104982739Y-51618739D01*
X104895385Y-51735295D01*
X104844255Y-51871684D01*
X104837500Y-51933866D01*
X104837500Y-53730134D01*
X104844255Y-53792316D01*
X104895385Y-53928705D01*
X104982739Y-54045261D01*
X105099295Y-54132615D01*
X105235684Y-54183745D01*
X105297866Y-54190500D01*
X107094134Y-54190500D01*
X107156316Y-54183745D01*
X107292705Y-54132615D01*
X107409261Y-54045261D01*
X107496615Y-53928705D01*
X107547745Y-53792316D01*
X107554500Y-53730134D01*
X107554500Y-53591500D01*
X107574502Y-53523379D01*
X107628158Y-53476886D01*
X107680500Y-53465500D01*
X107705980Y-53465500D01*
X107774101Y-53485502D01*
X107820594Y-53539158D01*
X107825813Y-53552563D01*
X107877473Y-53711556D01*
X107972960Y-53876944D01*
X107977378Y-53881851D01*
X107977379Y-53881852D01*
X108058840Y-53972324D01*
X108100747Y-54018866D01*
X108255248Y-54131118D01*
X108261276Y-54133802D01*
X108261278Y-54133803D01*
X108423681Y-54206109D01*
X108429712Y-54208794D01*
X108523112Y-54228647D01*
X108610056Y-54247128D01*
X108610061Y-54247128D01*
X108616513Y-54248500D01*
X108807487Y-54248500D01*
X108813939Y-54247128D01*
X108813944Y-54247128D01*
X108900888Y-54228647D01*
X108994288Y-54208794D01*
X109000319Y-54206109D01*
X109162722Y-54133803D01*
X109162724Y-54133802D01*
X109168752Y-54131118D01*
X109323253Y-54018866D01*
X109365160Y-53972324D01*
X109446621Y-53881852D01*
X109446622Y-53881851D01*
X109451040Y-53876944D01*
X109546527Y-53711556D01*
X109605542Y-53529928D01*
X109607777Y-53508669D01*
X109624814Y-53346565D01*
X109625504Y-53340000D01*
X109608108Y-53174488D01*
X109606232Y-53156635D01*
X109606232Y-53156633D01*
X109605542Y-53150072D01*
X109546527Y-52968444D01*
X109451040Y-52803056D01*
X109369220Y-52712185D01*
X109327675Y-52666045D01*
X109327674Y-52666044D01*
X109323253Y-52661134D01*
X109168752Y-52548882D01*
X109162724Y-52546198D01*
X109162722Y-52546197D01*
X109000319Y-52473891D01*
X109000318Y-52473891D01*
X108994288Y-52471206D01*
X108900887Y-52451353D01*
X108813944Y-52432872D01*
X108813939Y-52432872D01*
X108807487Y-52431500D01*
X108752828Y-52431500D01*
X108684707Y-52411498D01*
X108666576Y-52397351D01*
X108646350Y-52378358D01*
X108643507Y-52375602D01*
X108623770Y-52355865D01*
X108620573Y-52353385D01*
X108611551Y-52345680D01*
X108585100Y-52320841D01*
X108579321Y-52315414D01*
X108572375Y-52311595D01*
X108572372Y-52311593D01*
X108561566Y-52305652D01*
X108545047Y-52294801D01*
X108540743Y-52291463D01*
X108529041Y-52282386D01*
X108521772Y-52279241D01*
X108521768Y-52279238D01*
X108488463Y-52264826D01*
X108477813Y-52259609D01*
X108439060Y-52238305D01*
X108419437Y-52233267D01*
X108400734Y-52226863D01*
X108389420Y-52221967D01*
X108389419Y-52221967D01*
X108382145Y-52218819D01*
X108374322Y-52217580D01*
X108374312Y-52217577D01*
X108338476Y-52211901D01*
X108326856Y-52209495D01*
X108291711Y-52200472D01*
X108291710Y-52200472D01*
X108284030Y-52198500D01*
X108263776Y-52198500D01*
X108244065Y-52196949D01*
X108231886Y-52195020D01*
X108224057Y-52193780D01*
X108216165Y-52194526D01*
X108180039Y-52197941D01*
X108168181Y-52198500D01*
X107680500Y-52198500D01*
X107612379Y-52178498D01*
X107565886Y-52124842D01*
X107554500Y-52072500D01*
X107554500Y-51933866D01*
X107547745Y-51871684D01*
X107496615Y-51735295D01*
X107409261Y-51618739D01*
X107292705Y-51531385D01*
X107280132Y-51526672D01*
X107174203Y-51486960D01*
X107117439Y-51444318D01*
X107092739Y-51377756D01*
X107107947Y-51308408D01*
X107129493Y-51279727D01*
X107147251Y-51262031D01*
X107234096Y-51175489D01*
X107293354Y-51093023D01*
X107361435Y-50998277D01*
X107364453Y-50994077D01*
X107377011Y-50968669D01*
X107461136Y-50798453D01*
X107461137Y-50798451D01*
X107463430Y-50793811D01*
X107496245Y-50685805D01*
X107526865Y-50585023D01*
X107526865Y-50585021D01*
X107528370Y-50580069D01*
X107557529Y-50358590D01*
X107557744Y-50349781D01*
X107559074Y-50295365D01*
X107559074Y-50295361D01*
X107559156Y-50292000D01*
X107540852Y-50069361D01*
X107486431Y-49852702D01*
X107397354Y-49647840D01*
X107285291Y-49474617D01*
X107278822Y-49464617D01*
X107278820Y-49464614D01*
X107276014Y-49460277D01*
X107125670Y-49295051D01*
X107121619Y-49291852D01*
X107121615Y-49291848D01*
X106954414Y-49159800D01*
X106954410Y-49159798D01*
X106950359Y-49156598D01*
X106909053Y-49133796D01*
X106859084Y-49083364D01*
X106844312Y-49013921D01*
X106869428Y-48947516D01*
X106896780Y-48920909D01*
X106958024Y-48877224D01*
X107075860Y-48793173D01*
X107144507Y-48724766D01*
X107159104Y-48710219D01*
X107234096Y-48635489D01*
X107293354Y-48553023D01*
X107361435Y-48458277D01*
X107364453Y-48454077D01*
X107368778Y-48445327D01*
X107461136Y-48258453D01*
X107461137Y-48258451D01*
X107463430Y-48253811D01*
X107528370Y-48040069D01*
X107557529Y-47818590D01*
X107557980Y-47800134D01*
X107559074Y-47755365D01*
X107559074Y-47755361D01*
X107559156Y-47752000D01*
X107540852Y-47529361D01*
X107486431Y-47312702D01*
X107397354Y-47107840D01*
X107285291Y-46934617D01*
X107278822Y-46924617D01*
X107278820Y-46924614D01*
X107276014Y-46920277D01*
X107125670Y-46755051D01*
X107121619Y-46751852D01*
X107121615Y-46751848D01*
X106954414Y-46619800D01*
X106954410Y-46619798D01*
X106950359Y-46616598D01*
X106909053Y-46593796D01*
X106859084Y-46543364D01*
X106844312Y-46473921D01*
X106869428Y-46407516D01*
X106896780Y-46380909D01*
X106940603Y-46349650D01*
X107075860Y-46253173D01*
X107144507Y-46184766D01*
X107230435Y-46099137D01*
X107234096Y-46095489D01*
X107364453Y-45914077D01*
X107368778Y-45905327D01*
X107461136Y-45718453D01*
X107461137Y-45718451D01*
X107463430Y-45713811D01*
X107528370Y-45500069D01*
X107557529Y-45278590D01*
X107559156Y-45212000D01*
X107540852Y-44989361D01*
X107486431Y-44772702D01*
X107397354Y-44567840D01*
X107357906Y-44506862D01*
X107278822Y-44384617D01*
X107278820Y-44384614D01*
X107276014Y-44380277D01*
X107125670Y-44215051D01*
X107121619Y-44211852D01*
X107121615Y-44211848D01*
X106954414Y-44079800D01*
X106954410Y-44079798D01*
X106950359Y-44076598D01*
X106754789Y-43968638D01*
X106749920Y-43966914D01*
X106749916Y-43966912D01*
X106549087Y-43895795D01*
X106549083Y-43895794D01*
X106544212Y-43894069D01*
X106539119Y-43893162D01*
X106539116Y-43893161D01*
X106329373Y-43855800D01*
X106329367Y-43855799D01*
X106324284Y-43854894D01*
X106250452Y-43853992D01*
X106106081Y-43852228D01*
X106106079Y-43852228D01*
X106100911Y-43852165D01*
X105880091Y-43885955D01*
X105667756Y-43955357D01*
X105663164Y-43957747D01*
X105663165Y-43957747D01*
X105474199Y-44056116D01*
X105474194Y-44056119D01*
X105469607Y-44058507D01*
X105468607Y-44059258D01*
X105401404Y-44078321D01*
X105333470Y-44057693D01*
X105287473Y-44003612D01*
X105282730Y-43991262D01*
X105259001Y-43918233D01*
X105228527Y-43824444D01*
X105133040Y-43659056D01*
X105005253Y-43517134D01*
X104850752Y-43404882D01*
X104844724Y-43402198D01*
X104844722Y-43402197D01*
X104682319Y-43329891D01*
X104682318Y-43329891D01*
X104676288Y-43327206D01*
X104582887Y-43307353D01*
X104495944Y-43288872D01*
X104495939Y-43288872D01*
X104489487Y-43287500D01*
X104298513Y-43287500D01*
X104292061Y-43288872D01*
X104292056Y-43288872D01*
X104205112Y-43307353D01*
X104111712Y-43327206D01*
X104105682Y-43329891D01*
X104105681Y-43329891D01*
X103943278Y-43402197D01*
X103943276Y-43402198D01*
X103937248Y-43404882D01*
X103782747Y-43517134D01*
X103654960Y-43659056D01*
X103559473Y-43824444D01*
X103500458Y-44006072D01*
X103499768Y-44012633D01*
X103499768Y-44012635D01*
X103487927Y-44125295D01*
X103480496Y-44196000D01*
X103481186Y-44202565D01*
X103499463Y-44376457D01*
X103500458Y-44385928D01*
X103559473Y-44567556D01*
X103654960Y-44732944D01*
X103728137Y-44814215D01*
X103758853Y-44878221D01*
X103760500Y-44898524D01*
X103760500Y-49239406D01*
X103740498Y-49307527D01*
X103723595Y-49328501D01*
X96535500Y-56516595D01*
X96473188Y-56550621D01*
X96446405Y-56553500D01*
X95137866Y-56553500D01*
X95075684Y-56560255D01*
X94939295Y-56611385D01*
X94822739Y-56698739D01*
X94735385Y-56815295D01*
X94684255Y-56951684D01*
X94677500Y-57013866D01*
X94677500Y-58810134D01*
X94684255Y-58872316D01*
X94735385Y-59008705D01*
X94822739Y-59125261D01*
X94939295Y-59212615D01*
X94947704Y-59215767D01*
X94947705Y-59215768D01*
X95056451Y-59256535D01*
X95113216Y-59299176D01*
X95137916Y-59365738D01*
X95122709Y-59435087D01*
X95103316Y-59461568D01*
X94976629Y-59594138D01*
X94973715Y-59598410D01*
X94973714Y-59598411D01*
X94861095Y-59763504D01*
X94806184Y-59808507D01*
X94757007Y-59818500D01*
X93048595Y-59818500D01*
X92980474Y-59798498D01*
X92959500Y-59781595D01*
X90710126Y-57532221D01*
X90676100Y-57469909D01*
X90677515Y-57410514D01*
X90686553Y-57376783D01*
X90686554Y-57376776D01*
X90687978Y-57371463D01*
X90707353Y-57150000D01*
X90687978Y-56928537D01*
X90677514Y-56889484D01*
X90679204Y-56818507D01*
X90710126Y-56767778D01*
X92962508Y-54515396D01*
X94501079Y-52976826D01*
X94563389Y-52942801D01*
X94634204Y-52947866D01*
X94691040Y-52990413D01*
X94713089Y-53038221D01*
X94759565Y-53244446D01*
X94762645Y-53254275D01*
X94842770Y-53451603D01*
X94847413Y-53460794D01*
X94958694Y-53642388D01*
X94964777Y-53650699D01*
X95104213Y-53811667D01*
X95111580Y-53818883D01*
X95275434Y-53954916D01*
X95283881Y-53960831D01*
X95467756Y-54068279D01*
X95477042Y-54072729D01*
X95676001Y-54148703D01*
X95685899Y-54151579D01*
X95789250Y-54172606D01*
X95803299Y-54171410D01*
X95807000Y-54161065D01*
X95807000Y-54160517D01*
X96315000Y-54160517D01*
X96319064Y-54174359D01*
X96332478Y-54176393D01*
X96339184Y-54175534D01*
X96349262Y-54173392D01*
X96553255Y-54112191D01*
X96562842Y-54108433D01*
X96754095Y-54014739D01*
X96762945Y-54009464D01*
X96936328Y-53885792D01*
X96944200Y-53879139D01*
X97095052Y-53728812D01*
X97101730Y-53720965D01*
X97226003Y-53548020D01*
X97231313Y-53539183D01*
X97325670Y-53348267D01*
X97329469Y-53338672D01*
X97391377Y-53134910D01*
X97393555Y-53124837D01*
X97394986Y-53113962D01*
X97392775Y-53099778D01*
X97379617Y-53096000D01*
X96333115Y-53096000D01*
X96317876Y-53100475D01*
X96316671Y-53101865D01*
X96315000Y-53109548D01*
X96315000Y-54160517D01*
X95807000Y-54160517D01*
X95807000Y-52714000D01*
X95827002Y-52645879D01*
X95880658Y-52599386D01*
X95933000Y-52588000D01*
X97379344Y-52588000D01*
X97392875Y-52584027D01*
X97394180Y-52574947D01*
X97352214Y-52407875D01*
X97348894Y-52398124D01*
X97263972Y-52202814D01*
X97259105Y-52193739D01*
X97143426Y-52014926D01*
X97137136Y-52006757D01*
X96993806Y-51849240D01*
X96986273Y-51842215D01*
X96819139Y-51710222D01*
X96810556Y-51704520D01*
X96773602Y-51684120D01*
X96723631Y-51633687D01*
X96708859Y-51564245D01*
X96733975Y-51497839D01*
X96761327Y-51471232D01*
X96799059Y-51444318D01*
X96940860Y-51343173D01*
X97099096Y-51185489D01*
X97103661Y-51179137D01*
X97226435Y-51008277D01*
X97229453Y-51004077D01*
X97234396Y-50994077D01*
X97326136Y-50808453D01*
X97326137Y-50808451D01*
X97328430Y-50803811D01*
X97379168Y-50636814D01*
X97391865Y-50595023D01*
X97391865Y-50595021D01*
X97393370Y-50590069D01*
X97422529Y-50368590D01*
X97422855Y-50355240D01*
X97424074Y-50305365D01*
X97424074Y-50305361D01*
X97424156Y-50302000D01*
X97405852Y-50079361D01*
X97351431Y-49862702D01*
X97262354Y-49657840D01*
X97208152Y-49574057D01*
X97143822Y-49474617D01*
X97143820Y-49474614D01*
X97141014Y-49470277D01*
X96990670Y-49305051D01*
X96986619Y-49301852D01*
X96986615Y-49301848D01*
X96819414Y-49169800D01*
X96819410Y-49169798D01*
X96815359Y-49166598D01*
X96774053Y-49143796D01*
X96724084Y-49093364D01*
X96709312Y-49023921D01*
X96734428Y-48957516D01*
X96761780Y-48930909D01*
X96815874Y-48892324D01*
X96940860Y-48803173D01*
X97099096Y-48645489D01*
X97103661Y-48639137D01*
X97226435Y-48468277D01*
X97229453Y-48464077D01*
X97234396Y-48454077D01*
X97326136Y-48268453D01*
X97326137Y-48268451D01*
X97328430Y-48263811D01*
X97393370Y-48050069D01*
X97422529Y-47828590D01*
X97424156Y-47762000D01*
X97405852Y-47539361D01*
X97351431Y-47322702D01*
X97262354Y-47117840D01*
X97141014Y-46930277D01*
X97128439Y-46916457D01*
X96993798Y-46768488D01*
X96962746Y-46704642D01*
X96971141Y-46634143D01*
X97016317Y-46579375D01*
X97042761Y-46565706D01*
X97149297Y-46525767D01*
X97157705Y-46522615D01*
X97274261Y-46435261D01*
X97361615Y-46318705D01*
X97412745Y-46182316D01*
X97419500Y-46120134D01*
X97419500Y-44323866D01*
X97412745Y-44261684D01*
X97361615Y-44125295D01*
X97274261Y-44008739D01*
X97157705Y-43921385D01*
X97021316Y-43870255D01*
X96959134Y-43863500D01*
X95162866Y-43863500D01*
X95100684Y-43870255D01*
X94964295Y-43921385D01*
X94847739Y-44008739D01*
X94760385Y-44125295D01*
X94709255Y-44261684D01*
X94702500Y-44323866D01*
X94702500Y-46120134D01*
X94709255Y-46182316D01*
X94760385Y-46318705D01*
X94847739Y-46435261D01*
X94964295Y-46522615D01*
X94972704Y-46525767D01*
X94972705Y-46525768D01*
X95081451Y-46566535D01*
X95138216Y-46609176D01*
X95162916Y-46675738D01*
X95147709Y-46745087D01*
X95128316Y-46771568D01*
X95001629Y-46904138D01*
X94998715Y-46908410D01*
X94998714Y-46908411D01*
X94990620Y-46920277D01*
X94875743Y-47088680D01*
X94781688Y-47291305D01*
X94721989Y-47506570D01*
X94698251Y-47728695D01*
X94698548Y-47733848D01*
X94698548Y-47733851D01*
X94709896Y-47930660D01*
X94711110Y-47951715D01*
X94712247Y-47956761D01*
X94712248Y-47956767D01*
X94744453Y-48099668D01*
X94739917Y-48170520D01*
X94710631Y-48216464D01*
X94493747Y-48433348D01*
X94485461Y-48440888D01*
X94478982Y-48445000D01*
X94473557Y-48450777D01*
X94432357Y-48494651D01*
X94429602Y-48497493D01*
X94409865Y-48517230D01*
X94407385Y-48520427D01*
X94399682Y-48529447D01*
X94369414Y-48561679D01*
X94365595Y-48568625D01*
X94365593Y-48568628D01*
X94359652Y-48579434D01*
X94348801Y-48595953D01*
X94336386Y-48611959D01*
X94333241Y-48619228D01*
X94333238Y-48619232D01*
X94318826Y-48652537D01*
X94313609Y-48663187D01*
X94292305Y-48701940D01*
X94290334Y-48709615D01*
X94290334Y-48709616D01*
X94287267Y-48721562D01*
X94280863Y-48740266D01*
X94272819Y-48758855D01*
X94271580Y-48766678D01*
X94271577Y-48766688D01*
X94265901Y-48802524D01*
X94263495Y-48814144D01*
X94252500Y-48856970D01*
X94252500Y-48877224D01*
X94250949Y-48896934D01*
X94247780Y-48916943D01*
X94248526Y-48924835D01*
X94251941Y-48960961D01*
X94252500Y-48972819D01*
X94252500Y-51381406D01*
X94232498Y-51449527D01*
X94215595Y-51470501D01*
X90916787Y-54769308D01*
X90854475Y-54803334D01*
X90783659Y-54798269D01*
X90726824Y-54755722D01*
X90702013Y-54689202D01*
X90702171Y-54669232D01*
X90706874Y-54615475D01*
X90707353Y-54610000D01*
X90687978Y-54388537D01*
X90633104Y-54183745D01*
X90631863Y-54179114D01*
X90631862Y-54179112D01*
X90630440Y-54173804D01*
X90610535Y-54131118D01*
X90538814Y-53977311D01*
X90538811Y-53977306D01*
X90536488Y-53972324D01*
X90524299Y-53954916D01*
X90412136Y-53794730D01*
X90412134Y-53794727D01*
X90408977Y-53790219D01*
X90251781Y-53633023D01*
X90247273Y-53629866D01*
X90247270Y-53629864D01*
X90136874Y-53552564D01*
X90069677Y-53505512D01*
X90064695Y-53503189D01*
X90064690Y-53503186D01*
X89959627Y-53454195D01*
X89906342Y-53407278D01*
X89886881Y-53339001D01*
X89907423Y-53271041D01*
X89959627Y-53225805D01*
X90064690Y-53176814D01*
X90064695Y-53176811D01*
X90069677Y-53174488D01*
X90193500Y-53087786D01*
X90247270Y-53050136D01*
X90247273Y-53050134D01*
X90251781Y-53046977D01*
X90408977Y-52889781D01*
X90469703Y-52803056D01*
X90533331Y-52712185D01*
X90533332Y-52712183D01*
X90536488Y-52707676D01*
X90538811Y-52702694D01*
X90538814Y-52702689D01*
X90628117Y-52511178D01*
X90628118Y-52511177D01*
X90630440Y-52506196D01*
X90687978Y-52291463D01*
X90707353Y-52070000D01*
X90687978Y-51848537D01*
X90643922Y-51684120D01*
X90631863Y-51639114D01*
X90631862Y-51639112D01*
X90630440Y-51633804D01*
X90582681Y-51531385D01*
X90538814Y-51437311D01*
X90538811Y-51437306D01*
X90536488Y-51432324D01*
X90474064Y-51343173D01*
X90412136Y-51254730D01*
X90412134Y-51254727D01*
X90408977Y-51250219D01*
X90251781Y-51093023D01*
X90247273Y-51089866D01*
X90247270Y-51089864D01*
X90171505Y-51036813D01*
X90069677Y-50965512D01*
X90064695Y-50963189D01*
X90064690Y-50963186D01*
X89959627Y-50914195D01*
X89906342Y-50867278D01*
X89886881Y-50799001D01*
X89907423Y-50731041D01*
X89959627Y-50685805D01*
X90064690Y-50636814D01*
X90064695Y-50636811D01*
X90069677Y-50634488D01*
X90193500Y-50547786D01*
X90247270Y-50510136D01*
X90247273Y-50510134D01*
X90251781Y-50506977D01*
X90408977Y-50349781D01*
X90440078Y-50305365D01*
X90533331Y-50172185D01*
X90533332Y-50172183D01*
X90536488Y-50167676D01*
X90538811Y-50162694D01*
X90538814Y-50162689D01*
X90628117Y-49971178D01*
X90628118Y-49971177D01*
X90630440Y-49966196D01*
X90687978Y-49751463D01*
X90707353Y-49530000D01*
X90687978Y-49308537D01*
X90630440Y-49093804D01*
X90602458Y-49033797D01*
X90538814Y-48897311D01*
X90538811Y-48897306D01*
X90536488Y-48892324D01*
X90525915Y-48877224D01*
X90412136Y-48714730D01*
X90412134Y-48714727D01*
X90408977Y-48710219D01*
X90251781Y-48553023D01*
X90252857Y-48551947D01*
X90217459Y-48498734D01*
X90216337Y-48427746D01*
X90253772Y-48367421D01*
X90324171Y-48336066D01*
X90332688Y-48335141D01*
X90380516Y-48329945D01*
X90516905Y-48278815D01*
X90633461Y-48191461D01*
X90720815Y-48074905D01*
X90771945Y-47938516D01*
X90778700Y-47876334D01*
X90778700Y-46103666D01*
X90771945Y-46041484D01*
X90720815Y-45905095D01*
X90633461Y-45788539D01*
X90516905Y-45701185D01*
X90380516Y-45650055D01*
X90318334Y-45643300D01*
X88796500Y-45643300D01*
X88728379Y-45623298D01*
X88681886Y-45569642D01*
X88670500Y-45517300D01*
X88670500Y-42008115D01*
X98682500Y-42008115D01*
X98723298Y-42200056D01*
X98803112Y-42379321D01*
X98918453Y-42538074D01*
X99064280Y-42669377D01*
X99234220Y-42767492D01*
X99240506Y-42769534D01*
X99240505Y-42769534D01*
X99414566Y-42826090D01*
X99414567Y-42826090D01*
X99420845Y-42828130D01*
X99427408Y-42828820D01*
X99427409Y-42828820D01*
X99450405Y-42831237D01*
X99567078Y-42843500D01*
X99664922Y-42843500D01*
X99781595Y-42831237D01*
X99804591Y-42828820D01*
X99804592Y-42828820D01*
X99811155Y-42828130D01*
X99817433Y-42826090D01*
X99817434Y-42826090D01*
X99991495Y-42769534D01*
X99991494Y-42769534D01*
X99997780Y-42767492D01*
X100167720Y-42669377D01*
X100313547Y-42538074D01*
X100428888Y-42379321D01*
X100508702Y-42200056D01*
X100549500Y-42008115D01*
X101682500Y-42008115D01*
X101723298Y-42200056D01*
X101803112Y-42379321D01*
X101918453Y-42538074D01*
X102064280Y-42669377D01*
X102234220Y-42767492D01*
X102240506Y-42769534D01*
X102240505Y-42769534D01*
X102414566Y-42826090D01*
X102414567Y-42826090D01*
X102420845Y-42828130D01*
X102427408Y-42828820D01*
X102427409Y-42828820D01*
X102450405Y-42831237D01*
X102567078Y-42843500D01*
X102664922Y-42843500D01*
X102781595Y-42831237D01*
X102804591Y-42828820D01*
X102804592Y-42828820D01*
X102811155Y-42828130D01*
X102817433Y-42826090D01*
X102817434Y-42826090D01*
X102991495Y-42769534D01*
X102991494Y-42769534D01*
X102997780Y-42767492D01*
X103167720Y-42669377D01*
X103313547Y-42538074D01*
X103428888Y-42379321D01*
X103508702Y-42200056D01*
X103549500Y-42008115D01*
X103549500Y-41811885D01*
X103508702Y-41619944D01*
X103428888Y-41440679D01*
X103313547Y-41281926D01*
X103167720Y-41150623D01*
X102997780Y-41052508D01*
X102920059Y-41027255D01*
X102817434Y-40993910D01*
X102817433Y-40993910D01*
X102811155Y-40991870D01*
X102804592Y-40991180D01*
X102804591Y-40991180D01*
X102781595Y-40988763D01*
X102664922Y-40976500D01*
X102567078Y-40976500D01*
X102450405Y-40988763D01*
X102427409Y-40991180D01*
X102427408Y-40991180D01*
X102420845Y-40991870D01*
X102414567Y-40993910D01*
X102414566Y-40993910D01*
X102311941Y-41027255D01*
X102234220Y-41052508D01*
X102064280Y-41150623D01*
X101918453Y-41281926D01*
X101803112Y-41440679D01*
X101723298Y-41619944D01*
X101682500Y-41811885D01*
X101682500Y-42008115D01*
X100549500Y-42008115D01*
X100549500Y-41811885D01*
X100508702Y-41619944D01*
X100428888Y-41440679D01*
X100313547Y-41281926D01*
X100167720Y-41150623D01*
X99997780Y-41052508D01*
X99920059Y-41027255D01*
X99817434Y-40993910D01*
X99817433Y-40993910D01*
X99811155Y-40991870D01*
X99804592Y-40991180D01*
X99804591Y-40991180D01*
X99781595Y-40988763D01*
X99664922Y-40976500D01*
X99567078Y-40976500D01*
X99450405Y-40988763D01*
X99427409Y-40991180D01*
X99427408Y-40991180D01*
X99420845Y-40991870D01*
X99414567Y-40993910D01*
X99414566Y-40993910D01*
X99311941Y-41027255D01*
X99234220Y-41052508D01*
X99064280Y-41150623D01*
X98918453Y-41281926D01*
X98803112Y-41440679D01*
X98723298Y-41619944D01*
X98682500Y-41811885D01*
X98682500Y-42008115D01*
X88670500Y-42008115D01*
X88670500Y-40766500D01*
X88690502Y-40698379D01*
X88744158Y-40651886D01*
X88796500Y-40640500D01*
X99178377Y-40640500D01*
X99179148Y-40640502D01*
X99256721Y-40640976D01*
X99285152Y-40632850D01*
X99301915Y-40629272D01*
X99302753Y-40629152D01*
X99331187Y-40625080D01*
X99354564Y-40614451D01*
X99372087Y-40608004D01*
X99396771Y-40600949D01*
X99404365Y-40596157D01*
X99404368Y-40596156D01*
X99421780Y-40585170D01*
X99436861Y-40577032D01*
X99437097Y-40576925D01*
X99453171Y-40569617D01*
X99523458Y-40559628D01*
X99558875Y-40570263D01*
X99566715Y-40573944D01*
X99581691Y-40582263D01*
X99598983Y-40593471D01*
X99598988Y-40593473D01*
X99606515Y-40598352D01*
X99615108Y-40600922D01*
X99615113Y-40600924D01*
X99631120Y-40605711D01*
X99648564Y-40612372D01*
X99663676Y-40619467D01*
X99663678Y-40619468D01*
X99671800Y-40623281D01*
X99680667Y-40624662D01*
X99680668Y-40624662D01*
X99683353Y-40625080D01*
X99701017Y-40627830D01*
X99717732Y-40631613D01*
X99737466Y-40637515D01*
X99737472Y-40637516D01*
X99746066Y-40640086D01*
X99755037Y-40640141D01*
X99755038Y-40640141D01*
X99765097Y-40640202D01*
X99780506Y-40640296D01*
X99781289Y-40640329D01*
X99782386Y-40640500D01*
X99813377Y-40640500D01*
X99814147Y-40640502D01*
X99887785Y-40640952D01*
X99887786Y-40640952D01*
X99891721Y-40640976D01*
X99893065Y-40640592D01*
X99894410Y-40640500D01*
X101083377Y-40640500D01*
X101084148Y-40640502D01*
X101161721Y-40640976D01*
X101190152Y-40632850D01*
X101206915Y-40629272D01*
X101207753Y-40629152D01*
X101236187Y-40625080D01*
X101259564Y-40614451D01*
X101277087Y-40608004D01*
X101301771Y-40600949D01*
X101309365Y-40596157D01*
X101309368Y-40596156D01*
X101326780Y-40585170D01*
X101341861Y-40577032D01*
X101342097Y-40576925D01*
X101358171Y-40569617D01*
X101428458Y-40559628D01*
X101463875Y-40570263D01*
X101471715Y-40573944D01*
X101486691Y-40582263D01*
X101503983Y-40593471D01*
X101503988Y-40593473D01*
X101511515Y-40598352D01*
X101520108Y-40600922D01*
X101520113Y-40600924D01*
X101536120Y-40605711D01*
X101553564Y-40612372D01*
X101568676Y-40619467D01*
X101568678Y-40619468D01*
X101576800Y-40623281D01*
X101585667Y-40624662D01*
X101585668Y-40624662D01*
X101588353Y-40625080D01*
X101606017Y-40627830D01*
X101622732Y-40631613D01*
X101642466Y-40637515D01*
X101642472Y-40637516D01*
X101651066Y-40640086D01*
X101660037Y-40640141D01*
X101660038Y-40640141D01*
X101670097Y-40640202D01*
X101685506Y-40640296D01*
X101686289Y-40640329D01*
X101687386Y-40640500D01*
X101718377Y-40640500D01*
X101719147Y-40640502D01*
X101792785Y-40640952D01*
X101792786Y-40640952D01*
X101796721Y-40640976D01*
X101798065Y-40640592D01*
X101799410Y-40640500D01*
X111878377Y-40640500D01*
X111879148Y-40640502D01*
X111956721Y-40640976D01*
X111985152Y-40632850D01*
X112001915Y-40629272D01*
X112002753Y-40629152D01*
X112031187Y-40625080D01*
X112054564Y-40614451D01*
X112072087Y-40608004D01*
X112096771Y-40600949D01*
X112104365Y-40596157D01*
X112104368Y-40596156D01*
X112121780Y-40585170D01*
X112136861Y-40577032D01*
X112137097Y-40576925D01*
X112153171Y-40569617D01*
X112223458Y-40559628D01*
X112258875Y-40570263D01*
G37*
G04 #@! TD.AperFunction*
M02*
