G04 #@! TF.GenerationSoftware,KiCad,Pcbnew,6.0.9*
G04 #@! TF.CreationDate,2022-11-13T16:30:06+01:00*
G04 #@! TF.ProjectId,mikro-spiflash,6d696b72-6f2d-4737-9069-666c6173682e,rev?*
G04 #@! TF.SameCoordinates,Original*
G04 #@! TF.FileFunction,Soldermask,Bot*
G04 #@! TF.FilePolarity,Negative*
%FSLAX46Y46*%
G04 Gerber Fmt 4.6, Leading zero omitted, Abs format (unit mm)*
G04 Created by KiCad (PCBNEW 6.0.9) date 2022-11-13 16:30:06*
%MOMM*%
%LPD*%
G01*
G04 APERTURE LIST*
G04 Aperture macros list*
%AMRoundRect*
0 Rectangle with rounded corners*
0 $1 Rounding radius*
0 $2 $3 $4 $5 $6 $7 $8 $9 X,Y pos of 4 corners*
0 Add a 4 corners polygon primitive as box body*
4,1,4,$2,$3,$4,$5,$6,$7,$8,$9,$2,$3,0*
0 Add four circle primitives for the rounded corners*
1,1,$1+$1,$2,$3*
1,1,$1+$1,$4,$5*
1,1,$1+$1,$6,$7*
1,1,$1+$1,$8,$9*
0 Add four rect primitives between the rounded corners*
20,1,$1+$1,$2,$3,$4,$5,0*
20,1,$1+$1,$4,$5,$6,$7,0*
20,1,$1+$1,$6,$7,$8,$9,0*
20,1,$1+$1,$8,$9,$2,$3,0*%
G04 Aperture macros list end*
%ADD10RoundRect,0.051000X-0.838200X-0.838200X0.838200X-0.838200X0.838200X0.838200X-0.838200X0.838200X0*%
%ADD11C,1.626000*%
%ADD12RoundRect,0.051000X-0.762000X-0.762000X0.762000X-0.762000X0.762000X0.762000X-0.762000X0.762000X0*%
%ADD13RoundRect,0.186000X0.135000X0.185000X-0.135000X0.185000X-0.135000X-0.185000X0.135000X-0.185000X0*%
%ADD14RoundRect,0.201000X-0.650000X-0.150000X0.650000X-0.150000X0.650000X0.150000X-0.650000X0.150000X0*%
%ADD15RoundRect,0.156000X-0.445000X0.245000X-0.445000X-0.245000X0.445000X-0.245000X0.445000X0.245000X0*%
%ADD16RoundRect,0.141000X-0.210000X-0.535000X0.210000X-0.535000X0.210000X0.535000X-0.210000X0.535000X0*%
%ADD17C,0.952000*%
%ADD18RoundRect,0.186000X-0.135000X-0.185000X0.135000X-0.185000X0.135000X0.185000X-0.135000X0.185000X0*%
%ADD19RoundRect,0.051000X0.850000X0.850000X-0.850000X0.850000X-0.850000X-0.850000X0.850000X-0.850000X0*%
%ADD20O,1.802000X1.802000*%
%ADD21RoundRect,0.051000X-0.850000X-0.850000X0.850000X-0.850000X0.850000X0.850000X-0.850000X0.850000X0*%
%ADD22RoundRect,0.051000X-0.850000X0.850000X-0.850000X-0.850000X0.850000X-0.850000X0.850000X0.850000X0*%
%ADD23RoundRect,0.191000X-0.170000X0.140000X-0.170000X-0.140000X0.170000X-0.140000X0.170000X0.140000X0*%
%ADD24RoundRect,0.191000X0.140000X0.170000X-0.140000X0.170000X-0.140000X-0.170000X0.140000X-0.170000X0*%
G04 APERTURE END LIST*
D10*
X89432000Y-46990000D03*
D11*
X89432000Y-49530000D03*
X89432000Y-52070000D03*
X89432000Y-54610000D03*
X89432000Y-57150000D03*
X89432000Y-59690000D03*
X89432000Y-62230000D03*
X89432000Y-64770000D03*
X112292000Y-64770000D03*
X112292000Y-62230000D03*
X112292000Y-59690000D03*
X112292000Y-57150000D03*
X112292000Y-54610000D03*
X112292000Y-52070000D03*
X112292000Y-49530000D03*
D12*
X112292000Y-46990000D03*
D13*
X100586000Y-49022000D03*
X99566000Y-49022000D03*
D14*
X90441500Y-18984000D03*
X90441500Y-17714000D03*
X90441500Y-16444000D03*
X90441500Y-15174000D03*
X97641500Y-15174000D03*
X97641500Y-16444000D03*
X97641500Y-17714000D03*
X97641500Y-18984000D03*
X103236500Y-34036000D03*
X103236500Y-32766000D03*
X103236500Y-31496000D03*
X103236500Y-30226000D03*
X110436500Y-30226000D03*
X110436500Y-31496000D03*
X110436500Y-32766000D03*
X110436500Y-34036000D03*
X110439000Y-18986500D03*
X110439000Y-17716500D03*
X110439000Y-16446500D03*
X110439000Y-15176500D03*
X103239000Y-15176500D03*
X103239000Y-16446500D03*
X103239000Y-17716500D03*
X103239000Y-18986500D03*
X97644000Y-34033500D03*
X97644000Y-32763500D03*
X97644000Y-31493500D03*
X97644000Y-30223500D03*
X90444000Y-30223500D03*
X90444000Y-31493500D03*
X90444000Y-32763500D03*
X90444000Y-34033500D03*
D15*
X97416000Y-40760000D03*
X104816000Y-43060000D03*
X97416000Y-43060000D03*
X104816000Y-40760000D03*
D16*
X103366000Y-43910000D03*
X101866000Y-43910000D03*
X98866000Y-43910000D03*
D17*
X102616000Y-41910000D03*
X99616000Y-41910000D03*
D13*
X100584000Y-62738000D03*
X99564000Y-62738000D03*
D18*
X101596000Y-60706000D03*
X102616000Y-60706000D03*
D13*
X99564000Y-60706000D03*
X100584000Y-60706000D03*
D18*
X101596000Y-61722000D03*
X102616000Y-61722000D03*
X102616000Y-62738000D03*
X101596000Y-62738000D03*
D13*
X100586000Y-50038000D03*
X99566000Y-50038000D03*
X100584000Y-61722000D03*
X99564000Y-61722000D03*
D18*
X102618000Y-48006000D03*
X101598000Y-48006000D03*
D13*
X99566000Y-48006000D03*
X100586000Y-48006000D03*
D18*
X101598000Y-49022000D03*
X102618000Y-49022000D03*
X102618000Y-50038000D03*
X101598000Y-50038000D03*
D19*
X106171000Y-65532000D03*
D20*
X106171000Y-62992000D03*
X106171000Y-60452000D03*
X106171000Y-57912000D03*
D21*
X96036000Y-57912000D03*
D20*
X96036000Y-60452000D03*
X96036000Y-62992000D03*
X96036000Y-65532000D03*
X103029000Y-12001500D03*
X105569000Y-12001500D03*
X108109000Y-12001500D03*
D22*
X110649000Y-12001500D03*
D20*
X90234000Y-27048500D03*
X92774000Y-27048500D03*
X95314000Y-27048500D03*
D22*
X97854000Y-27048500D03*
X97854000Y-12001500D03*
D20*
X95314000Y-12001500D03*
X92774000Y-12001500D03*
X90234000Y-12001500D03*
D22*
X110649000Y-27048500D03*
D20*
X108109000Y-27048500D03*
X105569000Y-27048500D03*
X103029000Y-27048500D03*
D19*
X106196000Y-52832000D03*
D20*
X106196000Y-50292000D03*
X106196000Y-47752000D03*
X106196000Y-45212000D03*
D22*
X97854000Y-22161500D03*
D20*
X95314000Y-22161500D03*
X92774000Y-22161500D03*
X90234000Y-22161500D03*
D22*
X110649000Y-37208500D03*
D20*
X108109000Y-37208500D03*
X105569000Y-37208500D03*
X103029000Y-37208500D03*
X103029000Y-22161500D03*
X105569000Y-22161500D03*
X108109000Y-22161500D03*
D22*
X110649000Y-22161500D03*
D20*
X90234000Y-37208500D03*
X92774000Y-37208500D03*
X95314000Y-37208500D03*
D22*
X97854000Y-37208500D03*
D20*
X96061000Y-52842000D03*
X96061000Y-50302000D03*
X96061000Y-47762000D03*
D21*
X96061000Y-45222000D03*
D23*
X102644000Y-57602000D03*
X102644000Y-56642000D03*
D24*
X101120000Y-46228000D03*
X102080000Y-46228000D03*
M02*
