M48
; DRILL file {KiCad 6.0.9} date Sun 13 Nov 2022 04:13:27 PM CET
; FORMAT={-:-/ absolute / metric / decimal}
; #@! TF.CreationDate,2022-11-13T16:13:27+01:00
; #@! TF.GenerationSoftware,Kicad,Pcbnew,6.0.9
; #@! TF.FileFunction,Plated,1,2,PTH
FMAT,2
METRIC
; #@! TA.AperFunction,Plated,PTH,ViaDrill
T1C0.400
; #@! TA.AperFunction,Plated,PTH,ViaDrill
T2C0.600
; #@! TA.AperFunction,Plated,PTH,ComponentDrill
T3C0.889
; #@! TA.AperFunction,Plated,PTH,ComponentDrill
T4C1.000
%
G90
G05
T1
X90.867Y-19.936
X90.869Y-35.303
X91.44Y-61.722
X97.213Y-13.46
X97.213Y-28.636
X100.261Y-55.372
X102.108Y-55.372
X103.637Y-35.306
X103.664Y-20.256
X104.394Y-44.196
X108.712Y-53.34
X110.008Y-28.702
X110.038Y-13.462
T2
X100.076Y-46.228
X102.616Y-58.674
T3
X89.432Y-46.99
X89.432Y-49.53
X89.432Y-52.07
X89.432Y-54.61
X89.432Y-57.15
X89.432Y-59.69
X89.432Y-62.23
X89.432Y-64.77
X112.292Y-46.99
X112.292Y-49.53
X112.292Y-52.07
X112.292Y-54.61
X112.292Y-57.15
X112.292Y-59.69
X112.292Y-62.23
X112.292Y-64.77
T4
X90.234Y-12.002
X90.234Y-22.162
X90.234Y-27.048
X90.234Y-37.209
X92.774Y-12.002
X92.774Y-22.162
X92.774Y-27.048
X92.774Y-37.209
X95.314Y-12.002
X95.314Y-22.162
X95.314Y-27.048
X95.314Y-37.209
X96.036Y-57.912
X96.036Y-60.452
X96.036Y-62.992
X96.036Y-65.532
X96.061Y-45.222
X96.061Y-47.762
X96.061Y-50.302
X96.061Y-52.842
X97.854Y-12.002
X97.854Y-22.162
X97.854Y-27.048
X97.854Y-37.209
X103.029Y-12.002
X103.029Y-22.162
X103.029Y-27.048
X103.029Y-37.209
X105.569Y-12.002
X105.569Y-22.162
X105.569Y-27.048
X105.569Y-37.209
X106.171Y-57.912
X106.171Y-60.452
X106.171Y-62.992
X106.171Y-65.532
X106.196Y-45.212
X106.196Y-47.752
X106.196Y-50.292
X106.196Y-52.832
X108.109Y-12.002
X108.109Y-22.162
X108.109Y-27.048
X108.109Y-37.209
X110.649Y-12.002
X110.649Y-22.162
X110.649Y-27.048
X110.649Y-37.209
T0
M30
