G04 #@! TF.GenerationSoftware,KiCad,Pcbnew,6.0.9*
G04 #@! TF.CreationDate,2022-11-13T16:30:06+01:00*
G04 #@! TF.ProjectId,mikro-spiflash,6d696b72-6f2d-4737-9069-666c6173682e,rev?*
G04 #@! TF.SameCoordinates,Original*
G04 #@! TF.FileFunction,Legend,Bot*
G04 #@! TF.FilePolarity,Positive*
%FSLAX46Y46*%
G04 Gerber Fmt 4.6, Leading zero omitted, Abs format (unit mm)*
G04 Created by KiCad (PCBNEW 6.0.9) date 2022-11-13 16:30:06*
%MOMM*%
%LPD*%
G01*
G04 APERTURE LIST*
%ADD10C,0.050000*%
%ADD11C,0.150000*%
%ADD12C,0.127000*%
%ADD13C,0.120000*%
G04 APERTURE END LIST*
D10*
X93074023Y-47442380D02*
X93074023Y-46442380D01*
X92502595Y-47442380D01*
X92502595Y-46442380D01*
X91454976Y-47347142D02*
X91502595Y-47394761D01*
X91645452Y-47442380D01*
X91740690Y-47442380D01*
X91883547Y-47394761D01*
X91978785Y-47299523D01*
X92026404Y-47204285D01*
X92074023Y-47013809D01*
X92074023Y-46870952D01*
X92026404Y-46680476D01*
X91978785Y-46585238D01*
X91883547Y-46490000D01*
X91740690Y-46442380D01*
X91645452Y-46442380D01*
X91502595Y-46490000D01*
X91454976Y-46537619D01*
X93024023Y-50042380D02*
X93024023Y-49042380D01*
X92452595Y-50042380D01*
X92452595Y-49042380D01*
X91404976Y-49947142D02*
X91452595Y-49994761D01*
X91595452Y-50042380D01*
X91690690Y-50042380D01*
X91833547Y-49994761D01*
X91928785Y-49899523D01*
X91976404Y-49804285D01*
X92024023Y-49613809D01*
X92024023Y-49470952D01*
X91976404Y-49280476D01*
X91928785Y-49185238D01*
X91833547Y-49090000D01*
X91690690Y-49042380D01*
X91595452Y-49042380D01*
X91452595Y-49090000D01*
X91404976Y-49137619D01*
X92407357Y-52547142D02*
X92454976Y-52594761D01*
X92597833Y-52642380D01*
X92693071Y-52642380D01*
X92835928Y-52594761D01*
X92931166Y-52499523D01*
X92978785Y-52404285D01*
X93026404Y-52213809D01*
X93026404Y-52070952D01*
X92978785Y-51880476D01*
X92931166Y-51785238D01*
X92835928Y-51690000D01*
X92693071Y-51642380D01*
X92597833Y-51642380D01*
X92454976Y-51690000D01*
X92407357Y-51737619D01*
X92026404Y-52594761D02*
X91883547Y-52642380D01*
X91645452Y-52642380D01*
X91550214Y-52594761D01*
X91502595Y-52547142D01*
X91454976Y-52451904D01*
X91454976Y-52356666D01*
X91502595Y-52261428D01*
X91550214Y-52213809D01*
X91645452Y-52166190D01*
X91835928Y-52118571D01*
X91931166Y-52070952D01*
X91978785Y-52023333D01*
X92026404Y-51928095D01*
X92026404Y-51832857D01*
X91978785Y-51737619D01*
X91931166Y-51690000D01*
X91835928Y-51642380D01*
X91597833Y-51642380D01*
X91454976Y-51690000D01*
X93976404Y-54994761D02*
X93833547Y-55042380D01*
X93595452Y-55042380D01*
X93500214Y-54994761D01*
X93452595Y-54947142D01*
X93404976Y-54851904D01*
X93404976Y-54756666D01*
X93452595Y-54661428D01*
X93500214Y-54613809D01*
X93595452Y-54566190D01*
X93785928Y-54518571D01*
X93881166Y-54470952D01*
X93928785Y-54423333D01*
X93976404Y-54328095D01*
X93976404Y-54232857D01*
X93928785Y-54137619D01*
X93881166Y-54090000D01*
X93785928Y-54042380D01*
X93547833Y-54042380D01*
X93404976Y-54090000D01*
X92404976Y-54947142D02*
X92452595Y-54994761D01*
X92595452Y-55042380D01*
X92690690Y-55042380D01*
X92833547Y-54994761D01*
X92928785Y-54899523D01*
X92976404Y-54804285D01*
X93024023Y-54613809D01*
X93024023Y-54470952D01*
X92976404Y-54280476D01*
X92928785Y-54185238D01*
X92833547Y-54090000D01*
X92690690Y-54042380D01*
X92595452Y-54042380D01*
X92452595Y-54090000D01*
X92404976Y-54137619D01*
X91976404Y-55042380D02*
X91976404Y-54042380D01*
X91404976Y-55042380D02*
X91833547Y-54470952D01*
X91404976Y-54042380D02*
X91976404Y-54613809D01*
X94550214Y-57642380D02*
X94550214Y-56642380D01*
X94169261Y-56642380D01*
X94074023Y-56690000D01*
X94026404Y-56737619D01*
X93978785Y-56832857D01*
X93978785Y-56975714D01*
X94026404Y-57070952D01*
X94074023Y-57118571D01*
X94169261Y-57166190D01*
X94550214Y-57166190D01*
X93359738Y-56642380D02*
X93169261Y-56642380D01*
X93074023Y-56690000D01*
X92978785Y-56785238D01*
X92931166Y-56975714D01*
X92931166Y-57309047D01*
X92978785Y-57499523D01*
X93074023Y-57594761D01*
X93169261Y-57642380D01*
X93359738Y-57642380D01*
X93454976Y-57594761D01*
X93550214Y-57499523D01*
X93597833Y-57309047D01*
X93597833Y-56975714D01*
X93550214Y-56785238D01*
X93454976Y-56690000D01*
X93359738Y-56642380D01*
X91931166Y-57547142D02*
X91978785Y-57594761D01*
X92121642Y-57642380D01*
X92216880Y-57642380D01*
X92359738Y-57594761D01*
X92454976Y-57499523D01*
X92502595Y-57404285D01*
X92550214Y-57213809D01*
X92550214Y-57070952D01*
X92502595Y-56880476D01*
X92454976Y-56785238D01*
X92359738Y-56690000D01*
X92216880Y-56642380D01*
X92121642Y-56642380D01*
X91978785Y-56690000D01*
X91931166Y-56737619D01*
X91502595Y-57642380D02*
X91502595Y-56642380D01*
X94550214Y-60242380D02*
X94550214Y-59242380D01*
X94169261Y-59242380D01*
X94074023Y-59290000D01*
X94026404Y-59337619D01*
X93978785Y-59432857D01*
X93978785Y-59575714D01*
X94026404Y-59670952D01*
X94074023Y-59718571D01*
X94169261Y-59766190D01*
X94550214Y-59766190D01*
X93550214Y-60242380D02*
X93550214Y-59242380D01*
X92502595Y-60147142D02*
X92550214Y-60194761D01*
X92693071Y-60242380D01*
X92788309Y-60242380D01*
X92931166Y-60194761D01*
X93026404Y-60099523D01*
X93074023Y-60004285D01*
X93121642Y-59813809D01*
X93121642Y-59670952D01*
X93074023Y-59480476D01*
X93026404Y-59385238D01*
X92931166Y-59290000D01*
X92788309Y-59242380D01*
X92693071Y-59242380D01*
X92550214Y-59290000D01*
X92502595Y-59337619D01*
X91883547Y-59242380D02*
X91693071Y-59242380D01*
X91597833Y-59290000D01*
X91502595Y-59385238D01*
X91454976Y-59575714D01*
X91454976Y-59909047D01*
X91502595Y-60099523D01*
X91597833Y-60194761D01*
X91693071Y-60242380D01*
X91883547Y-60242380D01*
X91978785Y-60194761D01*
X92074023Y-60099523D01*
X92121642Y-59909047D01*
X92121642Y-59575714D01*
X92074023Y-59385238D01*
X91978785Y-59290000D01*
X91883547Y-59242380D01*
X95026404Y-62261428D02*
X94264500Y-62261428D01*
X94645452Y-62642380D02*
X94645452Y-61880476D01*
X93883547Y-61642380D02*
X93264500Y-61642380D01*
X93597833Y-62023333D01*
X93454976Y-62023333D01*
X93359738Y-62070952D01*
X93312119Y-62118571D01*
X93264500Y-62213809D01*
X93264500Y-62451904D01*
X93312119Y-62547142D01*
X93359738Y-62594761D01*
X93454976Y-62642380D01*
X93740690Y-62642380D01*
X93835928Y-62594761D01*
X93883547Y-62547142D01*
X92978785Y-61642380D02*
X92645452Y-62642380D01*
X92312119Y-61642380D01*
X92074023Y-61642380D02*
X91454976Y-61642380D01*
X91788309Y-62023333D01*
X91645452Y-62023333D01*
X91550214Y-62070952D01*
X91502595Y-62118571D01*
X91454976Y-62213809D01*
X91454976Y-62451904D01*
X91502595Y-62547142D01*
X91550214Y-62594761D01*
X91645452Y-62642380D01*
X91931166Y-62642380D01*
X92026404Y-62594761D01*
X92074023Y-62547142D01*
X93550214Y-64290000D02*
X93645452Y-64242380D01*
X93788309Y-64242380D01*
X93931166Y-64290000D01*
X94026404Y-64385238D01*
X94074023Y-64480476D01*
X94121642Y-64670952D01*
X94121642Y-64813809D01*
X94074023Y-65004285D01*
X94026404Y-65099523D01*
X93931166Y-65194761D01*
X93788309Y-65242380D01*
X93693071Y-65242380D01*
X93550214Y-65194761D01*
X93502595Y-65147142D01*
X93502595Y-64813809D01*
X93693071Y-64813809D01*
X93074023Y-65242380D02*
X93074023Y-64242380D01*
X92502595Y-65242380D01*
X92502595Y-64242380D01*
X92026404Y-65242380D02*
X92026404Y-64242380D01*
X91788309Y-64242380D01*
X91645452Y-64290000D01*
X91550214Y-64385238D01*
X91502595Y-64480476D01*
X91454976Y-64670952D01*
X91454976Y-64813809D01*
X91502595Y-65004285D01*
X91550214Y-65099523D01*
X91645452Y-65194761D01*
X91788309Y-65242380D01*
X92026404Y-65242380D01*
X109637595Y-64290000D02*
X109732833Y-64242380D01*
X109875690Y-64242380D01*
X110018547Y-64290000D01*
X110113785Y-64385238D01*
X110161404Y-64480476D01*
X110209023Y-64670952D01*
X110209023Y-64813809D01*
X110161404Y-65004285D01*
X110113785Y-65099523D01*
X110018547Y-65194761D01*
X109875690Y-65242380D01*
X109780452Y-65242380D01*
X109637595Y-65194761D01*
X109589976Y-65147142D01*
X109589976Y-64813809D01*
X109780452Y-64813809D01*
X109161404Y-65242380D02*
X109161404Y-64242380D01*
X108589976Y-65242380D01*
X108589976Y-64242380D01*
X108113785Y-65242380D02*
X108113785Y-64242380D01*
X107875690Y-64242380D01*
X107732833Y-64290000D01*
X107637595Y-64385238D01*
X107589976Y-64480476D01*
X107542357Y-64670952D01*
X107542357Y-64813809D01*
X107589976Y-65004285D01*
X107637595Y-65099523D01*
X107732833Y-65194761D01*
X107875690Y-65242380D01*
X108113785Y-65242380D01*
X110161404Y-62842380D02*
X110161404Y-61842380D01*
X109589976Y-62842380D01*
X109589976Y-61842380D01*
X108542357Y-62747142D02*
X108589976Y-62794761D01*
X108732833Y-62842380D01*
X108828071Y-62842380D01*
X108970928Y-62794761D01*
X109066166Y-62699523D01*
X109113785Y-62604285D01*
X109161404Y-62413809D01*
X109161404Y-62270952D01*
X109113785Y-62080476D01*
X109066166Y-61985238D01*
X108970928Y-61890000D01*
X108828071Y-61842380D01*
X108732833Y-61842380D01*
X108589976Y-61890000D01*
X108542357Y-61937619D01*
X110161404Y-60242380D02*
X110161404Y-59242380D01*
X109589976Y-60242380D01*
X109589976Y-59242380D01*
X108542357Y-60147142D02*
X108589976Y-60194761D01*
X108732833Y-60242380D01*
X108828071Y-60242380D01*
X108970928Y-60194761D01*
X109066166Y-60099523D01*
X109113785Y-60004285D01*
X109161404Y-59813809D01*
X109161404Y-59670952D01*
X109113785Y-59480476D01*
X109066166Y-59385238D01*
X108970928Y-59290000D01*
X108828071Y-59242380D01*
X108732833Y-59242380D01*
X108589976Y-59290000D01*
X108542357Y-59337619D01*
X110161404Y-57642380D02*
X110161404Y-56642380D01*
X109589976Y-57642380D01*
X109589976Y-56642380D01*
X108542357Y-57547142D02*
X108589976Y-57594761D01*
X108732833Y-57642380D01*
X108828071Y-57642380D01*
X108970928Y-57594761D01*
X109066166Y-57499523D01*
X109113785Y-57404285D01*
X109161404Y-57213809D01*
X109161404Y-57070952D01*
X109113785Y-56880476D01*
X109066166Y-56785238D01*
X108970928Y-56690000D01*
X108828071Y-56642380D01*
X108732833Y-56642380D01*
X108589976Y-56690000D01*
X108542357Y-56737619D01*
X110161404Y-55042380D02*
X110161404Y-54042380D01*
X109589976Y-55042380D01*
X109589976Y-54042380D01*
X108542357Y-54947142D02*
X108589976Y-54994761D01*
X108732833Y-55042380D01*
X108828071Y-55042380D01*
X108970928Y-54994761D01*
X109066166Y-54899523D01*
X109113785Y-54804285D01*
X109161404Y-54613809D01*
X109161404Y-54470952D01*
X109113785Y-54280476D01*
X109066166Y-54185238D01*
X108970928Y-54090000D01*
X108828071Y-54042380D01*
X108732833Y-54042380D01*
X108589976Y-54090000D01*
X108542357Y-54137619D01*
X110161404Y-52642380D02*
X110161404Y-51642380D01*
X109589976Y-52642380D01*
X109589976Y-51642380D01*
X108542357Y-52547142D02*
X108589976Y-52594761D01*
X108732833Y-52642380D01*
X108828071Y-52642380D01*
X108970928Y-52594761D01*
X109066166Y-52499523D01*
X109113785Y-52404285D01*
X109161404Y-52213809D01*
X109161404Y-52070952D01*
X109113785Y-51880476D01*
X109066166Y-51785238D01*
X108970928Y-51690000D01*
X108828071Y-51642380D01*
X108732833Y-51642380D01*
X108589976Y-51690000D01*
X108542357Y-51737619D01*
X110161404Y-50042380D02*
X110161404Y-49042380D01*
X109589976Y-50042380D01*
X109589976Y-49042380D01*
X108542357Y-49947142D02*
X108589976Y-49994761D01*
X108732833Y-50042380D01*
X108828071Y-50042380D01*
X108970928Y-49994761D01*
X109066166Y-49899523D01*
X109113785Y-49804285D01*
X109161404Y-49613809D01*
X109161404Y-49470952D01*
X109113785Y-49280476D01*
X109066166Y-49185238D01*
X108970928Y-49090000D01*
X108828071Y-49042380D01*
X108732833Y-49042380D01*
X108589976Y-49090000D01*
X108542357Y-49137619D01*
X110161404Y-47442380D02*
X110161404Y-46442380D01*
X109589976Y-47442380D01*
X109589976Y-46442380D01*
X108542357Y-47347142D02*
X108589976Y-47394761D01*
X108732833Y-47442380D01*
X108828071Y-47442380D01*
X108970928Y-47394761D01*
X109066166Y-47299523D01*
X109113785Y-47204285D01*
X109161404Y-47013809D01*
X109161404Y-46870952D01*
X109113785Y-46680476D01*
X109066166Y-46585238D01*
X108970928Y-46490000D01*
X108828071Y-46442380D01*
X108732833Y-46442380D01*
X108589976Y-46490000D01*
X108542357Y-46537619D01*
D11*
X100092880Y-52939904D02*
X100359547Y-52558952D01*
X100550023Y-52939904D02*
X100550023Y-52139904D01*
X100245261Y-52139904D01*
X100169071Y-52178000D01*
X100130976Y-52216095D01*
X100092880Y-52292285D01*
X100092880Y-52406571D01*
X100130976Y-52482761D01*
X100169071Y-52520857D01*
X100245261Y-52558952D01*
X100550023Y-52558952D01*
X99330976Y-52939904D02*
X99788119Y-52939904D01*
X99559547Y-52939904D02*
X99559547Y-52139904D01*
X99635738Y-52254190D01*
X99711928Y-52330380D01*
X99788119Y-52368476D01*
X98569071Y-52939904D02*
X99026214Y-52939904D01*
X98797642Y-52939904D02*
X98797642Y-52139904D01*
X98873833Y-52254190D01*
X98950023Y-52330380D01*
X99026214Y-52368476D01*
X94803404Y-16594880D02*
X94803404Y-17404404D01*
X94755785Y-17499642D01*
X94708166Y-17547261D01*
X94612928Y-17594880D01*
X94422452Y-17594880D01*
X94327214Y-17547261D01*
X94279595Y-17499642D01*
X94231976Y-17404404D01*
X94231976Y-16594880D01*
X93327214Y-16928214D02*
X93327214Y-17594880D01*
X93565309Y-16547261D02*
X93803404Y-17261547D01*
X93184357Y-17261547D01*
X107598404Y-31583380D02*
X107598404Y-32392904D01*
X107550785Y-32488142D01*
X107503166Y-32535761D01*
X107407928Y-32583380D01*
X107217452Y-32583380D01*
X107122214Y-32535761D01*
X107074595Y-32488142D01*
X107026976Y-32392904D01*
X107026976Y-31583380D01*
X106646023Y-31583380D02*
X106026976Y-31583380D01*
X106360309Y-31964333D01*
X106217452Y-31964333D01*
X106122214Y-32011952D01*
X106074595Y-32059571D01*
X106026976Y-32154809D01*
X106026976Y-32392904D01*
X106074595Y-32488142D01*
X106122214Y-32535761D01*
X106217452Y-32583380D01*
X106503166Y-32583380D01*
X106598404Y-32535761D01*
X106646023Y-32488142D01*
X107600904Y-16533880D02*
X107600904Y-17343404D01*
X107553285Y-17438642D01*
X107505666Y-17486261D01*
X107410428Y-17533880D01*
X107219952Y-17533880D01*
X107124714Y-17486261D01*
X107077095Y-17438642D01*
X107029476Y-17343404D01*
X107029476Y-16533880D01*
X106600904Y-16629119D02*
X106553285Y-16581500D01*
X106458047Y-16533880D01*
X106219952Y-16533880D01*
X106124714Y-16581500D01*
X106077095Y-16629119D01*
X106029476Y-16724357D01*
X106029476Y-16819595D01*
X106077095Y-16962452D01*
X106648523Y-17533880D01*
X106029476Y-17533880D01*
X94805904Y-31580880D02*
X94805904Y-32390404D01*
X94758285Y-32485642D01*
X94710666Y-32533261D01*
X94615428Y-32580880D01*
X94424952Y-32580880D01*
X94329714Y-32533261D01*
X94282095Y-32485642D01*
X94234476Y-32390404D01*
X94234476Y-31580880D01*
X93234476Y-32580880D02*
X93805904Y-32580880D01*
X93520190Y-32580880D02*
X93520190Y-31580880D01*
X93615428Y-31723738D01*
X93710666Y-31818976D01*
X93805904Y-31866595D01*
X100071690Y-66909904D02*
X100338357Y-66528952D01*
X100528833Y-66909904D02*
X100528833Y-66109904D01*
X100224071Y-66109904D01*
X100147880Y-66148000D01*
X100109785Y-66186095D01*
X100071690Y-66262285D01*
X100071690Y-66376571D01*
X100109785Y-66452761D01*
X100147880Y-66490857D01*
X100224071Y-66528952D01*
X100528833Y-66528952D01*
X99309785Y-66909904D02*
X99766928Y-66909904D01*
X99538357Y-66909904D02*
X99538357Y-66109904D01*
X99614547Y-66224190D01*
X99690738Y-66300380D01*
X99766928Y-66338476D01*
X99005023Y-66186095D02*
X98966928Y-66148000D01*
X98890738Y-66109904D01*
X98700261Y-66109904D01*
X98624071Y-66148000D01*
X98585976Y-66186095D01*
X98547880Y-66262285D01*
X98547880Y-66338476D01*
X98585976Y-66452761D01*
X99043119Y-66909904D01*
X98547880Y-66909904D01*
X102632880Y-64369904D02*
X102899547Y-63988952D01*
X103090023Y-64369904D02*
X103090023Y-63569904D01*
X102785261Y-63569904D01*
X102709071Y-63608000D01*
X102670976Y-63646095D01*
X102632880Y-63722285D01*
X102632880Y-63836571D01*
X102670976Y-63912761D01*
X102709071Y-63950857D01*
X102785261Y-63988952D01*
X103090023Y-63988952D01*
X101870976Y-64369904D02*
X102328119Y-64369904D01*
X102099547Y-64369904D02*
X102099547Y-63569904D01*
X102175738Y-63684190D01*
X102251928Y-63760380D01*
X102328119Y-63798476D01*
X101375738Y-63569904D02*
X101299547Y-63569904D01*
X101223357Y-63608000D01*
X101185261Y-63646095D01*
X101147166Y-63722285D01*
X101109071Y-63874666D01*
X101109071Y-64065142D01*
X101147166Y-64217523D01*
X101185261Y-64293714D01*
X101223357Y-64331809D01*
X101299547Y-64369904D01*
X101375738Y-64369904D01*
X101451928Y-64331809D01*
X101490023Y-64293714D01*
X101528119Y-64217523D01*
X101566214Y-64065142D01*
X101566214Y-63874666D01*
X101528119Y-63722285D01*
X101490023Y-63646095D01*
X101451928Y-63608000D01*
X101375738Y-63569904D01*
X100071785Y-64369904D02*
X100338452Y-63988952D01*
X100528928Y-64369904D02*
X100528928Y-63569904D01*
X100224166Y-63569904D01*
X100147976Y-63608000D01*
X100109880Y-63646095D01*
X100071785Y-63722285D01*
X100071785Y-63836571D01*
X100109880Y-63912761D01*
X100147976Y-63950857D01*
X100224166Y-63988952D01*
X100528928Y-63988952D01*
X99690833Y-64369904D02*
X99538452Y-64369904D01*
X99462261Y-64331809D01*
X99424166Y-64293714D01*
X99347976Y-64179428D01*
X99309880Y-64027047D01*
X99309880Y-63722285D01*
X99347976Y-63646095D01*
X99386071Y-63608000D01*
X99462261Y-63569904D01*
X99614642Y-63569904D01*
X99690833Y-63608000D01*
X99728928Y-63646095D01*
X99767023Y-63722285D01*
X99767023Y-63912761D01*
X99728928Y-63988952D01*
X99690833Y-64027047D01*
X99614642Y-64065142D01*
X99462261Y-64065142D01*
X99386071Y-64027047D01*
X99347976Y-63988952D01*
X99309880Y-63912761D01*
X102632880Y-65639904D02*
X102899547Y-65258952D01*
X103090023Y-65639904D02*
X103090023Y-64839904D01*
X102785261Y-64839904D01*
X102709071Y-64878000D01*
X102670976Y-64916095D01*
X102632880Y-64992285D01*
X102632880Y-65106571D01*
X102670976Y-65182761D01*
X102709071Y-65220857D01*
X102785261Y-65258952D01*
X103090023Y-65258952D01*
X102175738Y-65182761D02*
X102251928Y-65144666D01*
X102290023Y-65106571D01*
X102328119Y-65030380D01*
X102328119Y-64992285D01*
X102290023Y-64916095D01*
X102251928Y-64878000D01*
X102175738Y-64839904D01*
X102023357Y-64839904D01*
X101947166Y-64878000D01*
X101909071Y-64916095D01*
X101870976Y-64992285D01*
X101870976Y-65030380D01*
X101909071Y-65106571D01*
X101947166Y-65144666D01*
X102023357Y-65182761D01*
X102175738Y-65182761D01*
X102251928Y-65220857D01*
X102290023Y-65258952D01*
X102328119Y-65335142D01*
X102328119Y-65487523D01*
X102290023Y-65563714D01*
X102251928Y-65601809D01*
X102175738Y-65639904D01*
X102023357Y-65639904D01*
X101947166Y-65601809D01*
X101909071Y-65563714D01*
X101870976Y-65487523D01*
X101870976Y-65335142D01*
X101909071Y-65258952D01*
X101947166Y-65220857D01*
X102023357Y-65182761D01*
X102632880Y-66909904D02*
X102899547Y-66528952D01*
X103090023Y-66909904D02*
X103090023Y-66109904D01*
X102785261Y-66109904D01*
X102709071Y-66148000D01*
X102670976Y-66186095D01*
X102632880Y-66262285D01*
X102632880Y-66376571D01*
X102670976Y-66452761D01*
X102709071Y-66490857D01*
X102785261Y-66528952D01*
X103090023Y-66528952D01*
X102366214Y-66109904D02*
X101832880Y-66109904D01*
X102175738Y-66909904D01*
X100092880Y-54209904D02*
X100359547Y-53828952D01*
X100550023Y-54209904D02*
X100550023Y-53409904D01*
X100245261Y-53409904D01*
X100169071Y-53448000D01*
X100130976Y-53486095D01*
X100092880Y-53562285D01*
X100092880Y-53676571D01*
X100130976Y-53752761D01*
X100169071Y-53790857D01*
X100245261Y-53828952D01*
X100550023Y-53828952D01*
X99407166Y-53409904D02*
X99559547Y-53409904D01*
X99635738Y-53448000D01*
X99673833Y-53486095D01*
X99750023Y-53600380D01*
X99788119Y-53752761D01*
X99788119Y-54057523D01*
X99750023Y-54133714D01*
X99711928Y-54171809D01*
X99635738Y-54209904D01*
X99483357Y-54209904D01*
X99407166Y-54171809D01*
X99369071Y-54133714D01*
X99330976Y-54057523D01*
X99330976Y-53867047D01*
X99369071Y-53790857D01*
X99407166Y-53752761D01*
X99483357Y-53714666D01*
X99635738Y-53714666D01*
X99711928Y-53752761D01*
X99750023Y-53790857D01*
X99788119Y-53867047D01*
X100071785Y-65639904D02*
X100338452Y-65258952D01*
X100528928Y-65639904D02*
X100528928Y-64839904D01*
X100224166Y-64839904D01*
X100147976Y-64878000D01*
X100109880Y-64916095D01*
X100071785Y-64992285D01*
X100071785Y-65106571D01*
X100109880Y-65182761D01*
X100147976Y-65220857D01*
X100224166Y-65258952D01*
X100528928Y-65258952D01*
X99347976Y-64839904D02*
X99728928Y-64839904D01*
X99767023Y-65220857D01*
X99728928Y-65182761D01*
X99652738Y-65144666D01*
X99462261Y-65144666D01*
X99386071Y-65182761D01*
X99347976Y-65220857D01*
X99309880Y-65297047D01*
X99309880Y-65487523D01*
X99347976Y-65563714D01*
X99386071Y-65601809D01*
X99462261Y-65639904D01*
X99652738Y-65639904D01*
X99728928Y-65601809D01*
X99767023Y-65563714D01*
X102378880Y-51669904D02*
X102645547Y-51288952D01*
X102836023Y-51669904D02*
X102836023Y-50869904D01*
X102531261Y-50869904D01*
X102455071Y-50908000D01*
X102416976Y-50946095D01*
X102378880Y-51022285D01*
X102378880Y-51136571D01*
X102416976Y-51212761D01*
X102455071Y-51250857D01*
X102531261Y-51288952D01*
X102836023Y-51288952D01*
X101693166Y-51136571D02*
X101693166Y-51669904D01*
X101883642Y-50831809D02*
X102074119Y-51403238D01*
X101578880Y-51403238D01*
X100092880Y-51669904D02*
X100359547Y-51288952D01*
X100550023Y-51669904D02*
X100550023Y-50869904D01*
X100245261Y-50869904D01*
X100169071Y-50908000D01*
X100130976Y-50946095D01*
X100092880Y-51022285D01*
X100092880Y-51136571D01*
X100130976Y-51212761D01*
X100169071Y-51250857D01*
X100245261Y-51288952D01*
X100550023Y-51288952D01*
X99826214Y-50869904D02*
X99330976Y-50869904D01*
X99597642Y-51174666D01*
X99483357Y-51174666D01*
X99407166Y-51212761D01*
X99369071Y-51250857D01*
X99330976Y-51327047D01*
X99330976Y-51517523D01*
X99369071Y-51593714D01*
X99407166Y-51631809D01*
X99483357Y-51669904D01*
X99711928Y-51669904D01*
X99788119Y-51631809D01*
X99826214Y-51593714D01*
X102378880Y-52939904D02*
X102645547Y-52558952D01*
X102836023Y-52939904D02*
X102836023Y-52139904D01*
X102531261Y-52139904D01*
X102455071Y-52178000D01*
X102416976Y-52216095D01*
X102378880Y-52292285D01*
X102378880Y-52406571D01*
X102416976Y-52482761D01*
X102455071Y-52520857D01*
X102531261Y-52558952D01*
X102836023Y-52558952D01*
X102074119Y-52216095D02*
X102036023Y-52178000D01*
X101959833Y-52139904D01*
X101769357Y-52139904D01*
X101693166Y-52178000D01*
X101655071Y-52216095D01*
X101616976Y-52292285D01*
X101616976Y-52368476D01*
X101655071Y-52482761D01*
X102112214Y-52939904D01*
X101616976Y-52939904D01*
X102378880Y-54209904D02*
X102645547Y-53828952D01*
X102836023Y-54209904D02*
X102836023Y-53409904D01*
X102531261Y-53409904D01*
X102455071Y-53448000D01*
X102416976Y-53486095D01*
X102378880Y-53562285D01*
X102378880Y-53676571D01*
X102416976Y-53752761D01*
X102455071Y-53790857D01*
X102531261Y-53828952D01*
X102836023Y-53828952D01*
X101616976Y-54209904D02*
X102074119Y-54209904D01*
X101845547Y-54209904D02*
X101845547Y-53409904D01*
X101921738Y-53524190D01*
X101997928Y-53600380D01*
X102074119Y-53638476D01*
X101769714Y-56988666D02*
X101807809Y-56950571D01*
X101845904Y-56836285D01*
X101845904Y-56760095D01*
X101807809Y-56645809D01*
X101731619Y-56569619D01*
X101655428Y-56531523D01*
X101503047Y-56493428D01*
X101388761Y-56493428D01*
X101236380Y-56531523D01*
X101160190Y-56569619D01*
X101084000Y-56645809D01*
X101045904Y-56760095D01*
X101045904Y-56836285D01*
X101084000Y-56950571D01*
X101122095Y-56988666D01*
X101122095Y-57293428D02*
X101084000Y-57331523D01*
X101045904Y-57407714D01*
X101045904Y-57598190D01*
X101084000Y-57674380D01*
X101122095Y-57712476D01*
X101198285Y-57750571D01*
X101274476Y-57750571D01*
X101388761Y-57712476D01*
X101845904Y-57255333D01*
X101845904Y-57750571D01*
X101733333Y-45353714D02*
X101771428Y-45391809D01*
X101885714Y-45429904D01*
X101961904Y-45429904D01*
X102076190Y-45391809D01*
X102152380Y-45315619D01*
X102190476Y-45239428D01*
X102228571Y-45087047D01*
X102228571Y-44972761D01*
X102190476Y-44820380D01*
X102152380Y-44744190D01*
X102076190Y-44668000D01*
X101961904Y-44629904D01*
X101885714Y-44629904D01*
X101771428Y-44668000D01*
X101733333Y-44706095D01*
X100971428Y-45429904D02*
X101428571Y-45429904D01*
X101200000Y-45429904D02*
X101200000Y-44629904D01*
X101276190Y-44744190D01*
X101352380Y-44820380D01*
X101428571Y-44858476D01*
D12*
X113562000Y-66040000D02*
X111022000Y-68630000D01*
X88162000Y-48260000D02*
X90702000Y-48260000D01*
X111022000Y-45720000D02*
X113562000Y-45720000D01*
X111022000Y-66040000D02*
X113562000Y-66040000D01*
X111022000Y-48260000D02*
X111022000Y-66040000D01*
X111022000Y-45720000D02*
X111022000Y-48260000D01*
X113562000Y-45720000D02*
X113562000Y-66040000D01*
X111022000Y-48260000D02*
X113562000Y-48260000D01*
X90702000Y-45720000D02*
X88162000Y-45720000D01*
X90702000Y-48260000D02*
X90702000Y-45720000D01*
X90702000Y-66040000D02*
X90702000Y-48260000D01*
X88162000Y-66040000D02*
X90702000Y-66040000D01*
X88162000Y-48260000D02*
X88162000Y-66040000D01*
X88162000Y-45720000D02*
X88162000Y-48260000D01*
D13*
X100229641Y-48642000D02*
X99922359Y-48642000D01*
X100229641Y-49402000D02*
X99922359Y-49402000D01*
X91316500Y-14354000D02*
X91316500Y-14614000D01*
X91316500Y-19544000D02*
X89641500Y-19544000D01*
X94041500Y-19804000D02*
X91316500Y-19804000D01*
X91316500Y-19804000D02*
X91316500Y-19544000D01*
X96766500Y-14354000D02*
X96766500Y-14614000D01*
X94041500Y-14354000D02*
X96766500Y-14354000D01*
X94041500Y-14354000D02*
X91316500Y-14354000D01*
X96766500Y-19804000D02*
X96766500Y-19544000D01*
X94041500Y-19804000D02*
X96766500Y-19804000D01*
X104111500Y-29406000D02*
X104111500Y-29666000D01*
X104111500Y-34596000D02*
X102436500Y-34596000D01*
X106836500Y-34856000D02*
X104111500Y-34856000D01*
X104111500Y-34856000D02*
X104111500Y-34596000D01*
X109561500Y-29406000D02*
X109561500Y-29666000D01*
X106836500Y-29406000D02*
X109561500Y-29406000D01*
X106836500Y-29406000D02*
X104111500Y-29406000D01*
X109561500Y-34856000D02*
X109561500Y-34596000D01*
X106836500Y-34856000D02*
X109561500Y-34856000D01*
X106839000Y-19806500D02*
X109564000Y-19806500D01*
X109564000Y-19806500D02*
X109564000Y-19546500D01*
X106839000Y-14356500D02*
X104114000Y-14356500D01*
X106839000Y-14356500D02*
X109564000Y-14356500D01*
X109564000Y-14356500D02*
X109564000Y-14616500D01*
X104114000Y-19806500D02*
X104114000Y-19546500D01*
X106839000Y-19806500D02*
X104114000Y-19806500D01*
X104114000Y-19546500D02*
X102439000Y-19546500D01*
X104114000Y-14356500D02*
X104114000Y-14616500D01*
X94044000Y-34853500D02*
X96769000Y-34853500D01*
X96769000Y-34853500D02*
X96769000Y-34593500D01*
X94044000Y-29403500D02*
X91319000Y-29403500D01*
X94044000Y-29403500D02*
X96769000Y-29403500D01*
X96769000Y-29403500D02*
X96769000Y-29663500D01*
X91319000Y-34853500D02*
X91319000Y-34593500D01*
X94044000Y-34853500D02*
X91319000Y-34853500D01*
X91319000Y-34593500D02*
X89644000Y-34593500D01*
X91319000Y-29403500D02*
X91319000Y-29663500D01*
X97566000Y-42560000D02*
X97566000Y-41260000D01*
X103816000Y-43460000D02*
X104166000Y-43460000D01*
X98066000Y-43460000D02*
X98416000Y-43460000D01*
X104166000Y-40360000D02*
X98066000Y-40360000D01*
X104666000Y-41260000D02*
X104666000Y-42560000D01*
X100227641Y-62358000D02*
X99920359Y-62358000D01*
X100227641Y-63118000D02*
X99920359Y-63118000D01*
X101952359Y-61086000D02*
X102259641Y-61086000D01*
X101952359Y-60326000D02*
X102259641Y-60326000D01*
X100227641Y-61086000D02*
X99920359Y-61086000D01*
X100227641Y-60326000D02*
X99920359Y-60326000D01*
X101952359Y-62102000D02*
X102259641Y-62102000D01*
X101952359Y-61342000D02*
X102259641Y-61342000D01*
X101952359Y-62358000D02*
X102259641Y-62358000D01*
X101952359Y-63118000D02*
X102259641Y-63118000D01*
X100229641Y-49658000D02*
X99922359Y-49658000D01*
X100229641Y-50418000D02*
X99922359Y-50418000D01*
X100227641Y-61342000D02*
X99920359Y-61342000D01*
X100227641Y-62102000D02*
X99920359Y-62102000D01*
X101954359Y-47626000D02*
X102261641Y-47626000D01*
X101954359Y-48386000D02*
X102261641Y-48386000D01*
X100229641Y-48386000D02*
X99922359Y-48386000D01*
X100229641Y-47626000D02*
X99922359Y-47626000D01*
X101954359Y-49402000D02*
X102261641Y-49402000D01*
X101954359Y-48642000D02*
X102261641Y-48642000D01*
X101954359Y-49658000D02*
X102261641Y-49658000D01*
X101954359Y-50418000D02*
X102261641Y-50418000D01*
X102284000Y-57014164D02*
X102284000Y-57229836D01*
X103004000Y-57014164D02*
X103004000Y-57229836D01*
X101707836Y-45868000D02*
X101492164Y-45868000D01*
X101707836Y-46588000D02*
X101492164Y-46588000D01*
M02*
